<svg xmlns="http://www.w3.org/2000/svg" xmlns:svg="http://www.w3.org/2000/svg" xmlns:xlink="http://www.w3.org/1999/xlink" id="svg2869" width="64" height="64" version="1.1" viewBox="0 0 64 64"><defs id="defs2871"><linearGradient id="linearGradient5"><stop style="stop-color:#ef2929;stop-opacity:1" id="stop19" offset="0"/><stop style="stop-color:#ef2929;stop-opacity:0" id="stop20" offset="1"/></linearGradient><linearGradient id="swatch18"><stop style="stop-color:#ef2929;stop-opacity:1" id="stop18" offset="0"/></linearGradient><linearGradient id="swatch15"><stop style="stop-color:#3d0000;stop-opacity:1" id="stop15" offset="0"/></linearGradient><linearGradient id="linearGradient5-1"><stop style="stop-color:#ef2929;stop-opacity:1" id="stop5" offset="0"/><stop style="stop-color:#ef2929;stop-opacity:0" id="stop6" offset="1"/></linearGradient><linearGradient id="linearGradient3836-9"><stop style="stop-color:#a40000;stop-opacity:1" id="stop3838-8" offset="0"/><stop style="stop-color:#ef2929;stop-opacity:1" id="stop3840-1" offset="1"/></linearGradient><linearGradient id="linearGradient3836-9-3"><stop style="stop-color:#a40000;stop-opacity:1" id="stop3838-8-5" offset="0"/><stop style="stop-color:#ef2929;stop-opacity:1" id="stop3840-1-6" offset="1"/></linearGradient><linearGradient id="linearGradient3082" x1="-18" x2="-22" y1="18" y2="5" gradientUnits="userSpaceOnUse" xlink:href="#linearGradient3836-9-3"/><linearGradient id="linearGradient3836-9-7"><stop style="stop-color:#a40000;stop-opacity:1" id="stop3838-8-0" offset="0"/><stop style="stop-color:#ef2929;stop-opacity:1" id="stop3840-1-9" offset="1"/></linearGradient><linearGradient id="linearGradient3082-3" x1="-18" x2="-22" y1="18" y2="5" gradientUnits="userSpaceOnUse" xlink:href="#linearGradient3836-9-7"/><linearGradient id="linearGradient3801-1-3" x1="-18" x2="-22" y1="18" y2="5" gradientTransform="matrix(0.76342439,0,0,0.75750425,-4.596389,2.7525637)" gradientUnits="userSpaceOnUse" xlink:href="#linearGradient3836-9-3"/><linearGradient id="linearGradient3801-1-3-2" x1="-18" x2="-22" y1="18" y2="5" gradientTransform="matrix(0.84956703,0,0,0.84301394,-2.927337,1.7790378)" gradientUnits="userSpaceOnUse" xlink:href="#linearGradient3836-9-3"/><linearGradient id="linearGradient3844" x1="36" x2="32" y1="1039.362" y2="1003.362" gradientTransform="translate(2.0563921e-6,-988.36218)" gradientUnits="userSpaceOnUse" xlink:href="#linearGradient3838"/><linearGradient id="linearGradient3838"><stop style="stop-color:#d3d7cf;stop-opacity:1" id="stop3840" offset="0"/><stop style="stop-color:#fff;stop-opacity:1" id="stop3842" offset="1"/></linearGradient><linearGradient id="linearGradient3836" x1="36" x2="32" y1="1037.362" y2="1005.362" gradientTransform="translate(2.0563921e-6,-988.36218)" gradientUnits="userSpaceOnUse" xlink:href="#linearGradient3830"/><linearGradient id="linearGradient3830"><stop style="stop-color:#fff;stop-opacity:1" id="stop3832" offset="0"/><stop style="stop-color:#d3d7cf;stop-opacity:1" id="stop3834" offset="1"/></linearGradient><linearGradient id="linearGradient-1" x1="10.504" x2="5.935" y1="16.487" y2="1.636" gradientTransform="scale(0.99999018,1.0000098)" gradientUnits="userSpaceOnUse"><stop id="stop6-9" offset="0%" stop-color="#A40000"/><stop id="stop8" offset="100%" stop-color="#EF2929"/></linearGradient><linearGradient id="linearGradient3856" x1="80" x2="79" y1="58" y2="42" gradientUnits="userSpaceOnUse" xlink:href="#linearGradient3815"/><linearGradient id="linearGradient3815"><stop style="stop-color:#3465a4;stop-opacity:1" id="stop3817" offset="0"/><stop style="stop-color:#729fcf;stop-opacity:1" id="stop3819" offset="1"/></linearGradient><linearGradient id="linearGradient3858" x1="109" x2="105" y1="51" y2="38" gradientUnits="userSpaceOnUse" xlink:href="#linearGradient3841"/><linearGradient id="linearGradient3841"><stop style="stop-color:#204a87;stop-opacity:1" id="stop3843" offset="0"/><stop style="stop-color:#3465a4;stop-opacity:1" id="stop3845" offset="1"/></linearGradient><linearGradient id="linearGradient3898" x1="-18" x2="-22" y1="18" y2="5" gradientTransform="matrix(0.77114848,0,0,0.77113937,-4.4090973,2.5859051)" gradientUnits="userSpaceOnUse" xlink:href="#linearGradient3836-9-3"/><linearGradient id="linearGradient3978" x1="-15" x2="-19" y1="37" y2="37" gradientTransform="rotate(135.18861,5.7426909,37.969029)" gradientUnits="userSpaceOnUse" xlink:href="#linearGradient3815"/><linearGradient id="linearGradient3898-0" x1="37.429" x2="24.483" y1="41.591" y2="4.91" gradientUnits="userSpaceOnUse" xlink:href="#linearGradient17"/><linearGradient id="linearGradient17"><stop style="stop-color:#fff;stop-opacity:1" id="stop16" offset="0"/><stop style="stop-color:#fff;stop-opacity:0" id="stop17" offset="1"/></linearGradient><linearGradient id="linearGradient3856-9" x1="22.843" x2="30.784" y1="4.824" y2="28.645" gradientUnits="userSpaceOnUse" xlink:href="#linearGradient17"/><linearGradient id="linearGradient2"><stop style="stop-color:#73d216;stop-opacity:1" id="stop1" offset="0"/><stop style="stop-color:#8ae234;stop-opacity:1" id="stop2" offset="1"/></linearGradient><linearGradient id="linearGradient35" x1="-18" x2="-22" y1="18" y2="5" gradientTransform="matrix(0.82607043,0,0,0.82533448,-4.0098079,1.346708)" gradientUnits="userSpaceOnUse" xlink:href="#linearGradient3836-9-3"/><linearGradient id="linearGradient38" x1="-18" x2="-22" y1="18" y2="5" gradientTransform="matrix(0.82607043,0,0,0.82533448,-4.0098079,1.346708)" gradientUnits="userSpaceOnUse" xlink:href="#linearGradient3836-9-3"/></defs><metadata id="metadata2874"/><g id="layer3" style="display:inline"><g id="g40"><path id="path2996" d="M 6,21 17,10 h 35 v 26 c 0,9 -8,22 -24,22" style="fill:none;stroke:#151819;stroke-width:8;stroke-linecap:round;stroke-linejoin:round;stroke-opacity:1"/><path id="path2996-3" d="M 6,21 17,10 h 35 v 26 c 0,9 -8,22 -24,22" style="fill:none;stroke:#d3d7cf;stroke-width:4;stroke-linecap:round;stroke-linejoin:round;stroke-opacity:1"/><path id="path2996-3-6" d="M 5.03125,20.59375 16.6875,8.9375 52.353553,9 M 51,13 v 22 c 0,9 -7,22 -23,22" style="fill:none;stroke:#fff;stroke-width:2;stroke-linecap:round;stroke-linejoin:round;stroke-opacity:1"/></g><g id="g39" transform="matrix(1.1769792,0,0,1.176833,-4.8669286,-6.0961244)" style="stroke-width:.849685"><path id="path2996-6" d="M 19,30 23.075311,25.947821 36,26 v 9 c 0,3.156535 -3.388382,8 -9,8" style="fill:none;stroke:#162c02;stroke-width:6.79748;stroke-linecap:round;stroke-linejoin:round;stroke-opacity:1"/><path id="path2996-3-2" d="M 19,30 23.075311,25.947821 36,26 v 9.118879 C 36,38.275414 32.611618,43 27,43" style="fill:none;stroke:#73d216;stroke-width:3.39874;stroke-linecap:round;stroke-linejoin:round;stroke-opacity:1"/><path id="path2996-3-6-9" d="M 18.158808,29.44735 23,25 h 13 m -1,4.096525 V 34 c 0,4 -3,8 -8,8" style="fill:none;stroke:#8ae234;stroke-width:1.69937;stroke-linecap:round;stroke-linejoin:round;stroke-opacity:1"/></g><g id="g35" transform="matrix(0.77869459,0,0,0.77869445,67.548272,1.597758)" style="stroke-width:1.2842"><path style="fill:none;stroke:#2e0000;stroke-width:2.56841;stroke-miterlimit:4;stroke-dasharray:none;stroke-opacity:1" id="path34" d="M -26.310778,5.3580033 A 8.3519646,8.3515832 0.02039876 1 1 -13.623399,16.222662 8.3519646,8.3515832 0.02039876 1 1 -26.310778,5.3580033 Z"/><path style="fill:url(#linearGradient35);fill-opacity:1;stroke:#ef2929;stroke-width:2.56842;stroke-miterlimit:4;stroke-dasharray:none;stroke-opacity:1" id="path35" d="m -24.358888,7.0362241 a 5.782493,5.7773415 0 1 1 8.784093,7.5158349 5.782493,5.7773415 0 0 1 -8.784093,-7.5158349 z"/></g><g id="g38" transform="matrix(0.77869459,0,0,0.77869445,53.052595,16.099292)" style="stroke-width:1.2842"><path style="fill:none;stroke:#2e0000;stroke-width:2.56841;stroke-miterlimit:4;stroke-dasharray:none;stroke-opacity:1" id="path37" d="M -26.310778,5.3580033 A 8.3519646,8.3515832 0.02039876 1 1 -13.623399,16.222662 8.3519646,8.3515832 0.02039876 1 1 -26.310778,5.3580033 Z"/><path style="fill:url(#linearGradient38);fill-opacity:1;stroke:#ef2929;stroke-width:2.56842;stroke-miterlimit:4;stroke-dasharray:none;stroke-opacity:1" id="path38" d="m -24.358888,7.0362241 a 5.782493,5.7773415 0 1 1 8.784093,7.5158349 5.782493,5.7773415 0 0 1 -8.784093,-7.5158349 z"/></g></g></svg>