<svg xmlns="http://www.w3.org/2000/svg" xmlns:svg="http://www.w3.org/2000/svg" xmlns:xlink="http://www.w3.org/1999/xlink" id="svg2869" width="64" height="64" version="1.1" viewBox="0 0 64 64"><defs id="defs2871"><linearGradient id="linearGradient5"><stop style="stop-color:#babdb6;stop-opacity:1" id="stop5" offset="0"/><stop style="stop-color:#888a85;stop-opacity:1" id="stop6" offset="1"/></linearGradient><linearGradient id="linearGradient3771" x1="98" x2="81" y1="1047.362" y2="993.362" gradientTransform="translate(-60,-988.36218)" gradientUnits="userSpaceOnUse" xlink:href="#linearGradient3765"/><linearGradient id="linearGradient3765"><stop style="stop-color:#d3d7cf;stop-opacity:1" id="stop3767" offset="0"/><stop style="stop-color:#fff;stop-opacity:1" id="stop3769" offset="1"/></linearGradient><linearGradient id="linearGradient6" x1="32" x2="31.994" y1="27.564" y2="54.268" gradientTransform="translate(0,-10)" gradientUnits="userSpaceOnUse" xlink:href="#linearGradient5"/><radialGradient id="radialGradient3163-3" cx="43.783" cy="41.446" r="12.458" fx="43.783" fy="41.446" gradientTransform="matrix(1.0434787,1.0434783,-1.6856187,1.6856188,-24.127375,-70.170601)" gradientUnits="userSpaceOnUse" xlink:href="#linearGradient3857"/><linearGradient id="linearGradient3857"><stop style="stop-color:#34e0e2;stop-opacity:1" id="stop3859" offset="0"/><stop style="stop-color:#06989a;stop-opacity:1" id="stop3861" offset="1"/></linearGradient><linearGradient id="linearGradient3869" x1="139.618" x2="140.734" y1="38.503" y2="44.08" gradientTransform="matrix(1.7932228,0,0,1.7932228,-271.12512,1.5311472)" gradientUnits="userSpaceOnUse" xlink:href="#linearGradient3863"/><linearGradient id="linearGradient3863"><stop style="stop-color:#34e0e2;stop-opacity:1" id="stop3865" offset="0"/><stop style="stop-color:#16d0d2;stop-opacity:1" id="stop3867" offset="1"/></linearGradient><radialGradient id="radialGradient3163" cx="43.783" cy="41.446" r="12.458" fx="43.783" fy="41.446" gradientTransform="matrix(1.0434787,1.0434783,-1.6856187,1.6856188,-23.582326,-69.974294)" gradientUnits="userSpaceOnUse" xlink:href="#linearGradient3857"/><radialGradient id="radialGradient1503-3" cx="24.837" cy="36.421" r="15.645" fx="24.837" fy="36.421" gradientTransform="matrix(0.98996505,0,0,0.35413451,16.80711,-73.153048)" gradientUnits="userSpaceOnUse" xlink:href="#linearGradient8662"/><linearGradient id="linearGradient8662"><stop id="stop8664" offset="0" style="stop-color:#000;stop-opacity:1"/><stop id="stop8666" offset="1" style="stop-color:#000;stop-opacity:0"/></linearGradient></defs><metadata id="metadata2874"/><g id="layer3" style="display:inline"><g id="layer3-3" style="display:inline"><path style="fill:url(#linearGradient3771);fill-opacity:1;stroke:#2e3436;stroke-width:2;stroke-linecap:butt;stroke-linejoin:round;stroke-opacity:1" id="path2991" d="m 11,3 v 58.00002 h 42 v -48 L 43,3 Z"/><path style="fill:none;stroke:#fff;stroke-width:2;stroke-linecap:butt;stroke-linejoin:miter;stroke-opacity:1" id="path3763" d="M 13,5 V 59.00002 H 51 V 13.81392 L 41.99741,5 Z"/><path style="fill:#2e3436;fill-opacity:.392157;stroke:#2e3436;stroke-width:2;stroke-linecap:butt;stroke-linejoin:round;stroke-opacity:1" id="path2993" d="M 43,3 V 13.00002 H 53 Z"/><path id="rect1" d="m 9,17.564453 c -2.7699972,0 -5,2.230003 -5,5 V 40 c 0,2.769997 2.2300028,5 5,5 h 2 V 33.376953 H 53 V 45 h 2 c 2.769997,0 5,-2.230003 5,-5 V 22.564453 c 0,-2.769997 -2.230003,-5 -5,-5 z" style="fill:#d3d7cf;fill-rule:evenodd;stroke:#2e3436;stroke-width:2;stroke-linejoin:round;stroke-dasharray:none"/><path style="fill:none;fill-rule:evenodd;stroke:#888a85;stroke-width:2;stroke-linejoin:round;stroke-dasharray:none" id="path2" d="M 16.204604,44.26769 H 37.483376"/><path style="fill:none;fill-rule:evenodd;stroke:#888a85;stroke-width:2;stroke-linejoin:round;stroke-dasharray:none" id="path3" d="M 16.204604,49.26769 H 45.776642"/><path style="fill:none;fill-rule:evenodd;stroke:#888a85;stroke-width:2;stroke-linejoin:round;stroke-dasharray:none" id="path4" d="M 16.204604,54.26769 H 33.391305"/><path id="path5" d="m 9,19.564453 h 46 c 1.663036,0 3,1.336964 3,3 V 40 c 0,1.663036 -1.336964,3 -3,3 V 31.376953 H 9 V 43 C 7.3369634,43 6,41.663036 6,40 V 22.564453 c 0,-1.663036 1.3369634,-3 3,-3 z" style="display:inline;fill:url(#linearGradient6);fill-rule:evenodd;stroke:#d3d7cf;stroke-width:2;stroke-linejoin:round;stroke-dasharray:none"/><circle style="fill:#8ae234;fill-rule:evenodd;stroke:#4e9a06;stroke-width:2;stroke-linejoin:round;stroke-dasharray:none" id="path6" cx="12" cy="25.142" r="2.37"/><path style="fill:none;fill-rule:evenodd;stroke:#888a85;stroke-width:2;stroke-linejoin:round;stroke-dasharray:none" id="path1" d="M 16.204604,38.26769 H 41.061006"/><g id="g4404" transform="matrix(0.83171007,0,0,0.83069849,64.20425,-16.969688)" style="stroke-width:1.20307"><ellipse style="opacity:.205;fill:url(#radialGradient3163-3);fill-opacity:1;stroke:none;stroke-width:2.40615;stroke-linecap:round;stroke-linejoin:round;stroke-miterlimit:4;stroke-dasharray:none;stroke-dashoffset:2.04;stroke-opacity:1" id="path3055-5" cx="-41.304" cy="52.379" rx="21" ry="21"/><path style="fill:url(#linearGradient3869);fill-opacity:1;stroke:#042a2a;stroke-width:2.40615;stroke-linecap:round;stroke-linejoin:round;stroke-miterlimit:4;stroke-dashoffset:2.04;stroke-opacity:1" id="rect3057" d="M -32.626492,67.880379 -25.4536,60.707488 -3.9349265,82.22619 -11.107818,89.399058 Z"/><path style="fill:none;stroke:#34e0e2;stroke-width:2.40615;stroke-linecap:butt;stroke-linejoin:miter;stroke-opacity:1" id="path3865" d="M -6.0768775,82.909001 -24.009106,64.976782"/><path id="path3055" d="m -40.757812,31.576172 a 21,20.999998 0 0 0 -21,21 21,20.999998 0 0 0 21,21 21,20.999998 0 0 0 21,-21 21,20.999998 0 0 0 -21,-21 z m -0.01563,5.255859 a 16,16 0 0 1 16,16 16,16 0 0 1 -16,16 16,16 0 0 1 -16,-16 16,16 0 0 1 16,-16 z" style="opacity:1;fill:url(#radialGradient3163);fill-opacity:1;stroke:#042a2a;stroke-width:2.40615;stroke-linecap:round;stroke-linejoin:round;stroke-miterlimit:4;stroke-dasharray:none;stroke-dashoffset:2.04;stroke-opacity:1"/><circle style="fill:none;stroke:#34e0e2;stroke-width:2.40615;stroke-linecap:round;stroke-linejoin:round;stroke-miterlimit:4;stroke-dasharray:none;stroke-dashoffset:2.04;stroke-opacity:1" id="path3055-1" cx="-40.758" cy="52.576" r="19"/><ellipse style="color:#000;display:inline;overflow:visible;visibility:visible;opacity:.255;fill:url(#radialGradient1503-3);fill-opacity:1;fill-rule:evenodd;stroke:none;stroke-width:1.20307;marker:none" id="path8660" cx="41.395" cy="-60.255" rx="15.488" ry="5.54" transform="scale(-1)"/></g></g></g></svg>