<svg xmlns="http://www.w3.org/2000/svg" xmlns:svg="http://www.w3.org/2000/svg" xmlns:xlink="http://www.w3.org/1999/xlink" id="svg2869" width="64" height="64" version="1.1" viewBox="0 0 64 64" xml:space="preserve"><defs id="defs2871"><linearGradient id="linearGradient4"><stop style="stop-color:#c4a000;stop-opacity:1" id="stop4" offset="0"/><stop style="stop-color:#fce94f;stop-opacity:1" id="stop7" offset="1"/></linearGradient><linearGradient id="linearGradient5"><stop style="stop-color:#ef2929;stop-opacity:1" id="stop19" offset="0"/><stop style="stop-color:#ef2929;stop-opacity:0" id="stop20" offset="1"/></linearGradient><linearGradient id="swatch18"><stop style="stop-color:#ef2929;stop-opacity:1" id="stop18" offset="0"/></linearGradient><linearGradient id="swatch15"><stop style="stop-color:#3d0000;stop-opacity:1" id="stop15" offset="0"/></linearGradient><linearGradient id="linearGradient5-1"><stop style="stop-color:#ef2929;stop-opacity:1" id="stop5" offset="0"/><stop style="stop-color:#ef2929;stop-opacity:0" id="stop6" offset="1"/></linearGradient><linearGradient id="linearGradient3836-9"><stop style="stop-color:#a40000;stop-opacity:1" id="stop3838-8" offset="0"/><stop style="stop-color:#ef2929;stop-opacity:1" id="stop3840-1" offset="1"/></linearGradient><linearGradient id="linearGradient7" x1="10.802" x2="44.046" y1="49.561" y2="16.299" gradientUnits="userSpaceOnUse" xlink:href="#linearGradient4"/></defs><metadata id="metadata2874"/><g id="layer3" style="display:inline"><g id="g3"><path style="color:#000;display:block;overflow:visible;visibility:visible;fill:#fce94f;fill-opacity:1;fill-rule:nonzero;stroke:#221e0c;stroke-width:2.00001;stroke-linecap:round;stroke-linejoin:round;stroke-miterlimit:4;stroke-dasharray:none;stroke-dashoffset:0;stroke-opacity:1;marker:none;marker-start:none;marker-mid:none;marker-end:none" id="path1" d="M 28.811054,2.9998852 4.331002,24.363222 28.811054,46.769639 v -14.5239 l 2.594648,-0.108269 c 14.787528,-0.613737 24.886008,10.730282 22.432341,22.916074 -0.409194,2.032201 -1.170168,4.02883 -2.277583,5.946877 4.991053,-4.644764 7.468561,-10.141504 7.997963,-15.498322 1.366583,-13.827951 -10.043816,-28.399385 -28.015327,-28.2239 l -2.732042,0.02641 z"/><path style="color:#000;display:block;overflow:visible;visibility:visible;fill:url(#linearGradient7);fill-rule:nonzero;stroke:#fce94f;stroke-width:1.47883;stroke-linecap:round;stroke-linejoin:round;stroke-miterlimit:4;stroke-dasharray:none;stroke-dashoffset:0;stroke-opacity:1;marker:none;marker-start:none;marker-mid:none;marker-end:none" id="path3" d="m 35.335937,10.65625 14.400391,12.574219 -14.400391,13.1875 V 27.615234 L 32,27.474609 C 21.515464,27.039216 13.798628,34.189897 13.613281,42.847656 13.066901,41.466422 12.735455,40.068714 12.599609,38.693359 11.681352,29.396575 19.370531,19.319731 31.824219,19.441406 l 3.511718,0.03516 z" transform="matrix(-1.3528102,0,0,1.3520431,74.61372,-7.0084018)"/></g></g></svg>