<svg xmlns="http://www.w3.org/2000/svg" xmlns:svg="http://www.w3.org/2000/svg" xmlns:xlink="http://www.w3.org/1999/xlink" id="svg2869" width="64" height="64" version="1.1" viewBox="0 0 64 64"><defs id="defs2871"><linearGradient id="linearGradient3771" x1="98" x2="81" y1="1047.362" y2="993.362" gradientTransform="translate(-60,-988.36218)" gradientUnits="userSpaceOnUse" xlink:href="#linearGradient3765"/><linearGradient id="linearGradient3765"><stop style="stop-color:#d3d7cf;stop-opacity:1" id="stop3767" offset="0"/><stop style="stop-color:#fff;stop-opacity:1" id="stop3769" offset="1"/></linearGradient></defs><metadata id="metadata2874"/><g id="layer3" style="display:inline"><g id="layer3-3" style="display:inline"><path style="fill:url(#linearGradient3771);fill-opacity:1;stroke:#2e3436;stroke-width:2;stroke-linecap:butt;stroke-linejoin:round;stroke-opacity:1" id="path2991" d="m 11,3 v 58.00002 h 42 v -48 L 43,3 Z"/><path style="fill:none;stroke:#fff;stroke-width:2;stroke-linecap:butt;stroke-linejoin:miter;stroke-opacity:1" id="path3763" d="M 13,5 V 59.00002 H 51 V 13.81392 L 41.99741,5 Z"/><path style="fill:#2e3436;fill-opacity:.392157;stroke:#2e3436;stroke-width:2;stroke-linecap:butt;stroke-linejoin:round;stroke-opacity:1" id="path2993" d="M 43,3 V 13.00002 H 53 Z"/><g id="g2" transform="translate(20.044548,20.000268)"><path style="fill:#418fde;fill-opacity:1;fill-rule:evenodd;stroke:none;stroke-width:2.64567;stroke-linecap:square" id="path8" d="m 22,3.9997423 -3.999742,4.0002581 h -8 V 10.999806 H 14 v 4.000259 h -3.999742 v 4.999678 L 5.9999997,24 h 4.0503843 c 0.30326,-1e-6 0.571883,-0.195269 0.66559,-0.48369 l 0.723985,-2.22828 c 0.06925,-0.213087 0.236489,-0.379833 0.449583,-0.449065 l 0.556553,-0.180868 c 0.213108,-0.06926 0.446577,-0.03248 0.627866,0.09922 l 1.894968,1.377173 c 0.245331,0.178232 0.57787,0.178229 0.823203,0 l 1.698598,-1.234547 c 0.245363,-0.178242 0.347963,-0.493948 0.254247,-0.782378 l -0.723984,-2.22828 c -0.06926,-0.213109 -0.03197,-0.446575 0.09974,-0.627866 l 0.344164,-0.473355 c 0.131697,-0.181276 0.34179,-0.288856 0.565855,-0.28887 l 2.343001,5.1e-4 c 0.303278,10e-6 0.571885,-0.19577 0.66559,-0.484207 l 0.649054,-1.996771 c 0.0937,-0.288413 -0.0089,-0.60465 -0.254247,-0.782895 L 19.538664,11.858666 C 19.357381,11.726957 19.250306,11.516889 19.250311,11.292812 V 10.70732 c 1.9e-5,-0.224072 0.107062,-0.434681 0.288353,-0.566372 L 21.711646,8.5622376 C 21.892924,8.4305313 21.999999,8.219938 22,7.9958659 Z"/><path id="path7" d="m 18,0 -4,4 h 4 V 8 L 22,4 V 0 Z M 6,16 2,20 v 4 h 4 l 4,-4 H 6 Z" style="display:inline;fill:#ff585d;fill-opacity:1;fill-rule:evenodd;stroke:none;stroke-width:2.64567;stroke-linecap:square"/><path style="fill:#cb333b;fill-rule:evenodd;stroke-width:2.64567;stroke-linecap:square" id="path3" d="M 6,0 2,4 V 20 L 6,16 V 4 h 8 l 4,-4 z"/><path style="fill:#fefefe;fill-opacity:1;fill-rule:evenodd;stroke:none;stroke-width:2.64567;stroke-linecap:square" id="path9" d="M 5.9999997,19.999743 H 10.000258 V 15.000065 H 14 V 10.999806 H 10.000258 V 8.0000004 h 8 V 3.9997423 H 5.9999997 Z"/></g></g></g></svg>