<svg xmlns="http://www.w3.org/2000/svg" xmlns:svg="http://www.w3.org/2000/svg" xmlns:xlink="http://www.w3.org/1999/xlink" id="svg96" width="64" height="64" version="1.1" viewBox="0 0 64 64"><defs id="defs26"><linearGradient id="linearGradient4383"><stop id="stop2" offset="0" stop-color="#3465a4"/><stop id="stop4" offset="1" stop-color="#729fcf"/></linearGradient><linearGradient id="linearGradient4389" x1="20.244" x2="17.244" y1="37.588" y2="27.588" gradientTransform="translate(-1.2435,-2.5881)" gradientUnits="userSpaceOnUse" xlink:href="#linearGradient3774"/><linearGradient id="linearGradient4399" x1="48.714" x2="44.714" y1="45.586" y2="34.586" gradientTransform="translate(1.2856,1.4142)" gradientUnits="userSpaceOnUse"><stop id="stop8" offset="0" stop-color="#c4a000"/><stop id="stop10" offset="1" stop-color="#edd400"/></linearGradient><linearGradient id="linearGradient69042" x1="48.714" x2="44.714" y1="45.586" y2="34.586" gradientTransform="translate(-12.714,-17.586)" gradientUnits="userSpaceOnUse" xlink:href="#linearGradient3774"/><linearGradient id="linearGradient69056" x1="27.244" x2="22.244" y1="54.588" y2="40.588" gradientTransform="translate(-1.2435,-2.5881)" gradientUnits="userSpaceOnUse"><stop id="stop14" offset="0" stop-color="#c4a000"/><stop id="stop16" offset="1" stop-color="#fce94f"/></linearGradient><linearGradient id="linearGradient69709" x1="20.244" x2="17.244" y1="37.588" y2="27.588" gradientTransform="matrix(1,-0.026667,0,1,81.696,-5.3735)" gradientUnits="userSpaceOnUse" xlink:href="#linearGradient4383"/><linearGradient id="linearGradient69717" x1="50.714" x2="48.714" y1="25.586" y2="20.586" gradientTransform="translate(61.2256,1.0356)" gradientUnits="userSpaceOnUse" xlink:href="#linearGradient4383"/><linearGradient id="linearGradient3774"><stop id="stop21" offset="0" stop-color="#4e9a06"/><stop id="stop23" offset="1" stop-color="#8ae234"/></linearGradient><linearGradient id="linearGradient920" x1="20.244" x2="17.244" y1="37.588" y2="27.588" gradientTransform="translate(-1.2435,-2.5881)" gradientUnits="userSpaceOnUse" xlink:href="#linearGradient69056"/><linearGradient id="linearGradient69042-3" x1="48.714" x2="46.714" y1="45.586" y2="35.586" gradientTransform="translate(-12.714351,-17.585786)" gradientUnits="userSpaceOnUse" xlink:href="#linearGradient73208"/><linearGradient id="linearGradient73208"><stop style="stop-color:#c4a000;stop-opacity:1" id="stop73210" offset="0"/><stop style="stop-color:#edd400;stop-opacity:1" id="stop73212" offset="1"/></linearGradient></defs><metadata id="metadata28"/><g id="g40" style="stroke-width:2"><path id="path30" d="M 9,49 V 35 l 28,10 v 14 z" style="fill:url(#linearGradient69056);stroke:#302b00;stroke-linejoin:round"/><path id="path32" d="M 37,59 V 45 L 55,28 v 13 z" style="fill:url(#linearGradient4399);stroke:#302b00;stroke-linejoin:round"/><path id="path34" d="M 11.008,47.606 11,37.9997 l 24,8 0.0081,10.185 z" style="fill:none;stroke:#fce94f"/><path id="path36" d="M 39.005,54.168 39,45.9998 l 14,-13 0.0021,7.1768 z" style="fill:none;stroke:#edd400"/><path id="path38" d="M 23,40 42,23 55,28 37,45 Z" style="fill:#fce94f;stroke:#302b00;stroke-linejoin:round"/></g><g id="g94" fill="#ef2929" fill-rule="evenodd" stroke="#ef2929" stroke-width="1" display="none" opacity=".588"><path id="path66" d="m9 35v14"/><path id="path68" d="m9 35 28 10"/><path id="path70" d="m55 28v13"/><path id="path72" d="m37 45 18-17"/><path id="path74" d="m23 40v-14"/><path id="path76" d="m29 5 13 5"/><path id="path78" d="m23 26 19-16"/><path id="path80" d="m19 13 10-8"/><path id="path82" d="m55 15-9 8"/><path id="path84" d="m42 23v-13"/><path id="path86" d="m42 23 14 5"/><path id="path88" d="m23 40 19-17"/><path id="path90" d="m23 10h19"/><path id="path92" d="m34 17v13"/></g><path id="path912" d="M 9,35 V 21 l 14,5 v 14 z" style="fill:url(#linearGradient920);fill-opacity:1;stroke:#172a04;stroke-width:2;stroke-linejoin:round"/><path id="path914" d="M 9,21 28.585,5.209 42,10.0001 l -19,16 z" style="fill:#fce94f;fill-opacity:1;stroke:#172a04;stroke-width:2;stroke-linejoin:round;stroke-opacity:1"/><path style="fill:none;stroke:#fce94f;stroke-width:2;stroke-opacity:1" id="path52" d="m 10.951,33.746 0.08695,-9.9796 9.9568,3.5229 -0.02105,9.9613 z"/><path id="path69040" d="M 23,40 V 26 L 42,10 v 13 z" style="fill:url(#linearGradient69042-3);fill-opacity:1;fill-rule:nonzero;stroke:#302b00;stroke-width:2;stroke-linejoin:round;stroke-miterlimit:4;stroke-dasharray:none"/><path id="path69044-6" d="M 25,36 V 27 L 40,14 v 8 z" style="fill:none;stroke:#edd400;stroke-width:2;stroke-linejoin:miter;stroke-miterlimit:4;stroke-dasharray:none"/></svg>