<svg xmlns="http://www.w3.org/2000/svg" xmlns:svg="http://www.w3.org/2000/svg" xmlns:xlink="http://www.w3.org/1999/xlink" id="svg4025" width="64" height="64" version="1.1"><title id="title2509">Std_UserEditModeDefault</title><defs id="defs4027"><linearGradient id="linearGradient942"><stop style="stop-color:#d3d7cf;stop-opacity:1" id="stop938" offset="0"/><stop style="stop-color:#555753;stop-opacity:1" id="stop940" offset="1"/></linearGradient><linearGradient id="linearGradient919"><stop style="stop-color:#555753;stop-opacity:1" id="stop915" offset="0"/><stop style="stop-color:#babdb6;stop-opacity:1" id="stop917" offset="1"/></linearGradient><linearGradient id="linearGradient2497"><stop style="stop-color:#204a87;stop-opacity:1" id="stop2493" offset="0"/><stop style="stop-color:#729fcf;stop-opacity:1" id="stop2495" offset="1"/></linearGradient><radialGradient id="radialGradient8668" cx="24.837" cy="36.421" r="15.645" fx="24.837" fy="36.421" gradientTransform="matrix(-1.489736,0,0,-0.53739498,111.31562,31.29632)" gradientUnits="userSpaceOnUse" xlink:href="#linearGradient8662"/><linearGradient id="linearGradient8662"><stop id="stop8664" offset="0" style="stop-color:#000;stop-opacity:1"/><stop id="stop8666" offset="1" style="stop-color:#000;stop-opacity:0"/></linearGradient><linearGradient id="linearGradient921" x1="45" x2="10" y1="24" y2="-12" gradientUnits="userSpaceOnUse" xlink:href="#linearGradient919"/><linearGradient id="linearGradient944" x1="19" x2="32" y1="2" y2="6" gradientUnits="userSpaceOnUse" xlink:href="#linearGradient942"/><linearGradient id="linearGradient1" x1="454.81" x2="467.763" y1="115.027" y2="102.299" gradientTransform="matrix(0.69479672,-0.69479672,0.70710678,0.70710678,-380.19427,258.66394)" gradientUnits="userSpaceOnUse" xlink:href="#linearGradient2497"/></defs><metadata id="metadata4030"/><g id="layer4"><path id="path898-8" d="m 17,2 9,12 29,-37" transform="translate(0,32)" style="fill:none;stroke:#2e3436;stroke-width:10;stroke-linecap:round;stroke-linejoin:round;stroke-miterlimit:4;stroke-dasharray:none;stroke-opacity:1"/><circle style="fill:none;fill-rule:evenodd;stroke:#2e3436;stroke-width:6;stroke-linecap:round;stroke-linejoin:round;stroke-miterlimit:4;stroke-dasharray:none;paint-order:markers fill stroke" id="path881" cx="31.971" cy=".774" r="26.211" transform="translate(0,32)"/><path id="path8660" cx="24.837" cy="36.421" rx="15.645" ry="8.397" transform="translate(0,32)" style="color:#000;display:inline;overflow:visible;visibility:visible;opacity:.141176;fill:url(#radialGradient8668);fill-opacity:1;fill-rule:evenodd;stroke:none;stroke-width:1.22131;stroke-linecap:butt;stroke-linejoin:miter;stroke-miterlimit:10;stroke-dasharray:none;stroke-dashoffset:0;stroke-opacity:1;marker:none;marker-start:none;marker-mid:none;marker-end:none"/><circle id="path881-9" cx="32" cy="1" r="26.211" transform="translate(0,32)" style="fill:none;fill-rule:evenodd;stroke:url(#linearGradient921);stroke-width:2;stroke-linecap:round;stroke-linejoin:round;stroke-miterlimit:4;stroke-dasharray:none;paint-order:markers fill stroke"/><path style="fill:none;stroke:#eeeeec;stroke-width:6;stroke-linecap:round;stroke-linejoin:round;stroke-miterlimit:4;stroke-dasharray:none;stroke-opacity:1" id="path898" d="m 17,2 9,12 29,-37" transform="translate(0,32)"/><path id="path898-6" d="m 17,2 9,12 29,-37" transform="translate(0,32)" style="fill:none;stroke:url(#linearGradient944);stroke-width:2;stroke-linecap:round;stroke-linejoin:round;stroke-miterlimit:4;stroke-dasharray:none;stroke-opacity:1"/></g><g id="layer4-60" transform="translate(0,-3.9999998)" style="display:inline"><path style="display:inline;fill:url(#linearGradient1);stroke:none;stroke-width:2;stroke-linecap:butt;stroke-linejoin:round;stroke-opacity:1" id="path3843-5-6-9-7-6" d="M 3.0000818,21.999919 H 29.28419 c -2.12132,-2.121321 -2.121318,-2.878714 1e-6,-5.000033 -2.118429,-2.118428 -2.118629,-3.88137 0,-6 -2.12132,-2.1213203 -2.121317,-2.8785688 1e-6,-4.9998875 l -26.2841095,-1.4e-6 z" transform="translate(-2.1104444e-6,1.0000829)"/><path style="display:inline;fill:none;stroke:#729fcf;stroke-width:2.01764;stroke-linecap:butt;stroke-linejoin:miter;stroke-opacity:1" id="path3888-5-6-2" d="m 452.54848,97.248607 17.9055,17.593793" transform="matrix(0.69479672,-0.69479672,0.70710678,0.70710678,-380.19427,259.66402)"/><path style="display:inline;fill:none;stroke:#376caf;stroke-width:2.01764;stroke-linecap:butt;stroke-linejoin:miter;stroke-opacity:1" id="path3888" d="m 410.16237,100.31115 17.8493,17.53857" transform="matrix(0.69479672,-0.69479672,0.70710678,0.70710678,-352.91008,234.04877)"/><path style="display:inline;fill:none;stroke:#0b1521;stroke-width:2.01764;stroke-linecap:butt;stroke-linejoin:round;stroke-opacity:1" id="path3843-5-6-9-6-6" d="m 446.07175,103.61259 18.91496,18.58567 c 0,-3 0.54504,-3.53555 3.59819,-3.53555 0,-2.99591 1.26853,-4.24264 4.31781,-4.24264 0,-3 0.54495,-3.53546 3.5981,-3.53546 L 457.58585,92.298938 Z" transform="matrix(0.69479672,-0.69479672,0.70710678,0.70710678,-380.19427,259.66402)"/><path style="display:inline;fill:none;stroke:#0b1521;stroke-width:2;stroke-linecap:butt;stroke-linejoin:round;stroke-opacity:1" id="path1-1" d="M 29.284191,10.999886 H 3.0000823 Z" transform="translate(-2.1104444e-6,1.0000829)"/><path style="display:inline;fill:none;stroke:#0b1521;stroke-width:2;stroke-linecap:butt;stroke-linejoin:round;stroke-opacity:1" id="path1-7-8" d="M 29.284191,16.999886 H 3.000082 Z" transform="translate(-2.1104444e-6,1.0000829)"/><path style="display:inline;fill:#fff;stroke:#0b1521;stroke-width:2;stroke-linecap:butt;stroke-linejoin:round;stroke-opacity:1" id="path1-2-7" d="m 29.284189,17.999969 c -2.081547,-2.11843 -2.081746,-3.88137 0,-6 -2.084393,-2.1213172 -2.084387,-2.8785695 2e-6,-4.9998895 L 44.840542,14.999964 29.284189,23 c -2.084394,-2.121316 -2.084389,-2.878712 0,-5.000031 z" transform="translate(2.6299677e-6)"/><path style="display:inline;fill:#0b1521;stroke:none;stroke-width:1.00882px;stroke-linecap:butt;stroke-linejoin:round;stroke-opacity:1" id="path3971-2-9" d="m 473.46271,124.86983 8.47599,2.67156 -2.71894,-8.32839 c -3.10593,0.81774 -4.92679,2.61222 -5.75705,5.65683 z" transform="matrix(0.69479672,-0.69479672,0.70710678,0.70710678,-380.19427,259.66402)"/></g></svg>