<svg xmlns="http://www.w3.org/2000/svg" xmlns:svg="http://www.w3.org/2000/svg" xmlns:xlink="http://www.w3.org/1999/xlink" id="svg2869" width="64" height="64" version="1.1" viewBox="0 0 64 64"><defs id="defs2871"><linearGradient id="linearGradient3771" x1="98" x2="81" y1="1047.362" y2="993.362" gradientTransform="translate(-60,-988.36218)" gradientUnits="userSpaceOnUse" xlink:href="#linearGradient3765"/><linearGradient id="linearGradient3765"><stop style="stop-color:#d3d7cf;stop-opacity:1" id="stop3767" offset="0"/><stop style="stop-color:#fff;stop-opacity:1" id="stop3769" offset="1"/></linearGradient><linearGradient id="linearGradient9" x1="98" x2="81" y1="1047.362" y2="993.362" gradientTransform="translate(-60,-988.36218)" gradientUnits="userSpaceOnUse" xlink:href="#linearGradient3765"/><linearGradient id="linearGradient1014"><stop style="stop-color:#204a87;stop-opacity:1" id="stop1010" offset="0"/><stop style="stop-color:#729fcf;stop-opacity:1" id="stop1012" offset="1"/></linearGradient><linearGradient id="linearGradient951-4" x1="29" x2="15" y1="47" y2="17" gradientTransform="matrix(0.47516502,-0.46153841,0.47516502,0.46153841,-1.514774,32.45158)" gradientUnits="userSpaceOnUse" xlink:href="#linearGradient1014"/></defs><metadata id="metadata2874"/><g id="layer3" style="display:inline"><g id="g5" transform="matrix(0.88681323,0,0,0.88889159,10.527509,0.33465048)" style="stroke-width:1.12632"><path style="fill:url(#linearGradient3771);fill-opacity:1;stroke:#2e3436;stroke-width:2.25263;stroke-linecap:butt;stroke-linejoin:round;stroke-opacity:1" id="path2991" d="m 11,3 v 58.00002 h 42 v -48 L 43,3 Z"/><path style="fill:none;stroke:#fff;stroke-width:2.25263;stroke-linecap:butt;stroke-linejoin:miter;stroke-opacity:1" id="path3763" d="M 13,5 V 59.00002 H 51 V 13.81392 L 41.99741,5 Z"/><path style="fill:#2e3436;fill-opacity:.392157;stroke:#2e3436;stroke-width:2.25263;stroke-linecap:butt;stroke-linejoin:round;stroke-opacity:1" id="path2993" d="M 43,3 V 13.00002 H 53 Z"/></g><g id="g9" transform="matrix(0.88681323,0,0,0.88889159,-3.283556,6.77627)" style="stroke-width:1.12632"><path style="fill:url(#linearGradient9);fill-opacity:1;stroke:#2e3436;stroke-width:2.25263;stroke-linecap:butt;stroke-linejoin:round;stroke-opacity:1" id="path7" d="m 11,3 v 58.00002 h 42 v -48 L 43,3 Z"/><path style="fill:none;stroke:#fff;stroke-width:2.25263;stroke-linecap:butt;stroke-linejoin:miter;stroke-opacity:1" id="path8" d="M 13,5 V 59.00002 H 51 V 13.81392 L 41.99741,5 Z"/><path style="fill:#2e3436;fill-opacity:.392157;stroke:#2e3436;stroke-width:2.25263;stroke-linecap:butt;stroke-linejoin:round;stroke-opacity:1" id="path9" d="M 43,3 V 13.00002 H 53 Z"/></g></g><path style="color:#000;display:inline;overflow:visible;visibility:visible;fill:url(#linearGradient951-4);fill-opacity:1;fill-rule:evenodd;stroke:#0b1521;stroke-width:3;stroke-linecap:round;stroke-linejoin:round;stroke-miterlimit:4;stroke-dasharray:none;stroke-dashoffset:0;stroke-opacity:1;marker:none;enable-background:accumulate" id="rect3761" d="m 12.740176,32.45158 v 5.538461 h 9.503301 v 9.230768 h 5.70198 v -9.230768 l 9.503301,-10e-7 v -5.538461 l -9.503301,10e-7 v -9.230769 h -5.70198 v 9.230769 z"/><path style="color:#000;display:inline;overflow:visible;visibility:visible;fill:none;stroke:#729fcf;stroke-width:1.32456;stroke-linecap:round;stroke-linejoin:miter;stroke-miterlimit:4;stroke-dasharray:none;stroke-dashoffset:0;stroke-opacity:1;marker:none;enable-background:accumulate" id="rect3761-3" d="m 14.165671,33.836195 v 2.769231 h 9.503301 v 9.230767 h 2.85099 v -9.230767 l 9.503301,-1e-6 v -2.769231 l -9.503301,10e-7 1e-6,-9.230768 h -2.85099 l -1e-6,9.230768 z"/></svg>