<svg xmlns="http://www.w3.org/2000/svg" xmlns:svg="http://www.w3.org/2000/svg" xmlns:xlink="http://www.w3.org/1999/xlink" id="svg6248" width="64" height="64" version="1.1"><title id="title856">Std_ViewDimetric</title><defs id="defs6250"><linearGradient id="linearGradient3253"><stop id="stop3255" offset="0" style="stop-color:#89d5f8;stop-opacity:1"/><stop id="stop3257" offset="1" style="stop-color:#00899e;stop-opacity:1"/></linearGradient><linearGradient id="linearGradient6816"><stop id="stop6818" offset="0" style="stop-color:#000;stop-opacity:1"/><stop id="stop6820" offset="1" style="stop-color:#000;stop-opacity:0"/></linearGradient><linearGradient id="linearGradient6781"><stop id="stop6783" offset="0" style="stop-color:#fff;stop-opacity:1"/><stop id="stop6785" offset="1" style="stop-color:#3465a4;stop-opacity:0"/></linearGradient><radialGradient id="radialGradient6822" cx="33.37" cy="51.929" r="25.199" fx="33.37" fy="51.929" gradientTransform="matrix(1.1581633,0,0,0.6558985,-7.29237,16.126077)" gradientUnits="userSpaceOnUse" xlink:href="#linearGradient6816"/><radialGradient id="radialGradient3259" cx="18.418" cy="17.014" r="27.987" fx="18.418" fy="17.014" gradientTransform="matrix(0.9724373,-0.105657,5.0523169e-2,0.4650009,-0.3519546,9.5854384)" gradientUnits="userSpaceOnUse" xlink:href="#linearGradient3253"/><radialGradient id="radialGradient3270" cx="18.418" cy="17.014" r="27.987" fx="18.418" fy="17.014" gradientTransform="matrix(0.9724373,-0.105657,0.05052317,0.4650009,-0.3519546,9.5854384)" gradientUnits="userSpaceOnUse" xlink:href="#linearGradient3253"/></defs><metadata id="metadata6253"/><g id="layer1"><path id="path858" d="M 5,17 32,5 59,17 V 47 L 32,59 5,47 Z" style="fill:none;stroke:#042a2a;stroke-width:6;stroke-linecap:butt;stroke-linejoin:round;stroke-miterlimit:4;stroke-dasharray:none;stroke-opacity:1"/><path style="fill:none;stroke:#34e0e2;stroke-width:2;stroke-linecap:butt;stroke-linejoin:round;stroke-miterlimit:4;stroke-dasharray:none;stroke-opacity:1" id="path858-8" d="M 5,17 32,5 59,17 V 47 L 32,59 5,47 Z"/><g style="font-size:45.4849px;line-height:1.25;font-family:sans-serif;-inkscape-font-specification:sans-serif;letter-spacing:0;word-spacing:0;fill:#34e0e2;stroke:#042a2a;stroke-width:2.274;stroke-linejoin:round;stroke-miterlimit:4;stroke-dasharray:none" id="text877" aria-label="D"><path id="path850" d="M 21.928259,44.379818 V 43.48659 q 0.838541,-0.21875 1.203124,-0.419271 0.364583,-0.200521 0.565104,-0.510416 0.20052,-0.309896 0.291666,-0.893229 0.09115,-0.583332 0.09115,-1.841144 V 24.054314 q 0,-1.27604 -0.09115,-1.841144 -0.09115,-0.583333 -0.309896,-0.893228 -0.20052,-0.309896 -0.546874,-0.492187 -0.346354,-0.200521 -1.203124,-0.4375 v -0.893228 h 7.984368 q 3.44531,0 5.632808,0.765624 2.205727,0.747395 3.718747,2.223956 1.513019,1.476562 2.260414,3.682289 0.747396,2.187498 0.747396,5.231766 0,3.080727 -0.710937,5.432287 -0.692708,2.333332 -2.041665,3.919268 -1.166666,1.385415 -2.861977,2.278644 -1.403645,0.729166 -3.244789,1.039061 -1.841144,0.309896 -4.885412,0.309896 z m 5.559891,-1.695311 q 0.729166,0.07292 2.15104,0.07292 1.531249,0 2.734373,-0.255209 1.203124,-0.255208 2.187498,-0.802082 0.984374,-0.546875 1.768227,-1.51302 0.783854,-0.984374 1.276041,-2.242185 0.492187,-1.276041 0.710937,-2.825519 0.236979,-1.549478 0.236979,-3.390622 0,-3.700518 -1.07552,-6.070307 -1.057291,-2.388019 -3.00781,-3.481768 -1.93229,-1.093749 -4.630204,-1.093749 -1.239583,0 -2.351561,0.07292 z" style="font-style:normal;font-variant:normal;font-weight:400;font-stretch:normal;font-size:37.3333px;font-family:Cambria;-inkscape-font-specification:Cambria;stroke-width:2.274;stroke-linejoin:round;stroke-miterlimit:4;stroke-dasharray:none"/></g></g></svg>