<svg xmlns="http://www.w3.org/2000/svg" xmlns:svg="http://www.w3.org/2000/svg" xmlns:xlink="http://www.w3.org/1999/xlink" id="svg4198" width="64" height="64" version="1.1"><defs id="defs4200"><linearGradient id="linearGradient15218"><stop style="stop-color:#f0f0ef;stop-opacity:1" id="stop15220" offset="0"/><stop id="stop2269" offset=".599" style="stop-color:#e8e8e8;stop-opacity:1"/><stop id="stop2267" offset=".828" style="stop-color:#fff;stop-opacity:1"/><stop style="stop-color:#d8d8d3;stop-opacity:1" id="stop15222" offset="1"/></linearGradient><linearGradient id="linearGradient2259"><stop style="stop-color:#fff;stop-opacity:1" id="stop2261" offset="0"/><stop style="stop-color:#fff;stop-opacity:0" id="stop2263" offset="1"/></linearGradient><linearGradient id="linearGradient2224"><stop style="stop-color:#7c7c7c;stop-opacity:1" id="stop2226" offset="0"/><stop style="stop-color:#b8b8b8;stop-opacity:1" id="stop2228" offset="1"/></linearGradient><linearGradient id="linearGradient2230" x1="35.997" x2="33.665" y1="40.458" y2="37.771" gradientTransform="translate(6.161836,4.033411)" gradientUnits="userSpaceOnUse" xlink:href="#linearGradient2224"/><linearGradient id="linearGradient2251"><stop style="stop-color:#fff;stop-opacity:1" id="stop2253" offset="0"/><stop style="stop-color:#fff;stop-opacity:0" id="stop2255" offset="1"/></linearGradient><linearGradient id="linearGradient2257" x1="33.396" x2="34.17" y1="36.921" y2="38.07" gradientTransform="translate(6.161836,3.658411)" gradientUnits="userSpaceOnUse" xlink:href="#linearGradient2251"/><linearGradient id="linearGradient13651" x1="26.076" x2="30.811" y1="26.697" y2="42.007" gradientTransform="matrix(0.999421,0,0,1,5.991319,4.033411)" gradientUnits="userSpaceOnUse" xlink:href="#linearGradient2259"/><linearGradient id="linearGradient13653" x1="22.308" x2="35.785" y1="18.992" y2="39.498" gradientTransform="matrix(1.067236,0,0,0.989276,4.391684,4.035227)" gradientUnits="userSpaceOnUse" xlink:href="#linearGradient15218"/></defs><metadata id="metadata4203"/><g id="layer1"><g id="g12863" transform="matrix(1.1249531,0,0,1.1249531,-9.7587421,-8.0938643)"><g id="g3"><g id="path1"><path id="path2" d="m 44.904297,11.738281 c -0.854526,-0.01652 -2.011504,0.02136 -3.367188,0.833985 -1.355683,0.812622 -2.523437,2.808615 -2.523437,4.61914 0,2.101331 1.674838,3.84977 2.8125,4.408203 1.137662,0.558434 1.665884,0.628907 2.626953,0.628907 h 0.04102 0.03906 c 0.489855,-0.01093 0.312432,-0.02748 0.285156,-0.03516 v 9.111328 c 0,0.709512 0.08365,1.663977 0.736328,3.091797 0.18144,0.396921 0.537139,0.824473 0.820313,1.244141 -0.283174,0.419668 -0.638873,0.84722 -0.820313,1.244141 -0.652681,1.427819 -0.736328,2.382282 -0.736328,3.091796 v 9.111329 c 0.02727,-0.0077 0.2047,-0.02423 -0.285156,-0.03516 h -0.03906 -0.04102 c -0.961066,0 -1.48929,0.07047 -2.626953,0.628907 -1.137663,0.558433 -2.8125,2.306872 -2.8125,4.408203 0,1.810525 1.167756,3.80652 2.523437,4.61914 1.355682,0.812621 2.512673,0.8505 3.367188,0.833985 0.765073,-0.01478 2.796318,-0.07051 5.095703,-1.080078 2.290144,-1.005507 4.979527,-3.486362 5.478516,-7.169922 0.104934,-0.67578 0.06454,-0.711778 0.07227,-1.035157 0.0083,-0.349614 0.01212,-0.766462 0.01563,-1.21875 0.007,-0.904575 0.0078,-1.940131 0.0078,-2.679687 v -4.748047 c 0,-0.452734 -0.01618,-0.31676 0,-0.476562 0.418109,-0.111436 0.676781,-0.160157 1.291015,-0.160157 1.101115,0 2.726967,-0.346376 3.847657,-1.585937 1.12069,-1.239561 1.296875,-2.66616 1.296875,-3.748047 0,-1.081887 -0.176186,-2.508486 -1.296875,-3.748047 -1.12069,-1.239561 -2.746541,-1.585937 -3.847657,-1.585937 -0.614234,0 -0.872905,-0.04872 -1.291015,-0.160157 -0.01618,-0.159802 0,-0.02383 0,-0.476562 v -4.748047 c 0,-0.739539 -8e-4,-1.775106 -0.0078,-2.679688 -0.0035,-0.45229 -0.0073,-0.871074 -0.01563,-1.220703 -0.0077,-0.323345 0.03268,-0.357496 -0.07227,-1.033203 C 54.979527,16.304721 52.290144,13.823866 50,12.818359 47.700615,11.808795 45.66937,11.753065 44.904297,11.738281 Z M 44.375,15.117188 h 0.07813 c 0.452656,0 0.341666,0.03236 0.355469,0.06836 -0.15003,-0.004 -0.282644,-0.07173 -0.433594,-0.06836 z m 0.490234,40.966796 c -0.06473,0.06387 0.112866,0.08008 -0.412109,0.08008 l -0.07813,-0.002 c 0.170713,0.0038 0.320735,-0.07256 0.490234,-0.07813 z" style="color:#000;-inkscape-font-specification:'Latin Modern Mono';fill:#2e3436;stroke-linecap:round;-inkscape-stroke:none;paint-order:markers stroke fill"/><path id="path3" d="m 44.83603,15.292406 c -0.897487,-0.01735 -2.267456,0.263607 -2.267456,1.899385 0,1.26641 1.568678,1.480964 1.885495,1.480964 2.960829,-0.06605 3.920303,1.709477 3.920303,3.239718 v 9.392753 c 0,0.209247 0.10679,2.647961 2.989708,4.33525 -2.882918,1.68729 -2.989708,4.126004 -2.989708,4.33525 v 9.392753 c 0,1.530242 -0.959474,3.305766 -3.920303,3.239719 -0.316817,0 -1.885495,0.214553 -1.885495,1.480964 0,1.635777 1.369969,1.916731 2.267456,1.899385 1.086773,-0.021 6.494556,-0.328881 7.128769,-5.196397 0.0528,-0.316603 0.05382,-2.955 0.05382,-4.432477 v -4.748462 c 0,-1.899613 0.08593,-3.155195 2.138978,-3.816131 1.137954,-0.375942 1.946855,-0.376752 2.70671,-0.376752 1.110931,0 1.590344,-0.511443 1.590344,-1.777852 0,-1.266408 -0.479413,-1.777852 -1.590344,-1.777852 -0.759855,0 -1.568756,-8.1e-4 -2.70671,-0.376751 -2.053043,-0.660937 -2.138978,-1.916519 -2.138978,-3.816132 v -4.748462 c 0,-1.477476 -10e-4,-4.115873 -0.05382,-4.432476 -0.634213,-4.867516 -6.041996,-5.175397 -7.128769,-5.196397 z" style="color:#000;-inkscape-font-specification:'Latin Modern Mono';fill:#fff;stroke-linecap:round;-inkscape-stroke:none;paint-order:markers stroke fill"/></g><g id="g2"><g id="path1-7"><path id="path4" d="m 29.335937,11.738281 c -0.765073,0.01478 -2.794365,0.07051 -5.09375,1.080078 -2.2884,1.004742 -4.976565,3.483188 -5.478515,7.16211 -0.108307,0.692017 -0.06449,0.715237 -0.07227,1.041015 -0.0083,0.349629 -0.01407,0.768413 -0.01758,1.220703 -0.007,0.904582 -0.0078,1.940149 -0.0078,2.679688 v 4.748047 c 0,0.452732 0.01618,0.31676 0,0.476562 -0.416926,0.110896 -0.675743,0.160157 -1.289063,0.160157 -1.101116,0 -2.72892,0.346376 -3.849609,1.585937 -1.120689,1.239561 -1.296875,2.66616 -1.296875,3.748047 0,1.081887 0.176185,2.508486 1.296875,3.748047 1.12069,1.239561 2.748494,1.585937 3.849609,1.585937 0.61332,0 0.872138,0.04926 1.289063,0.160157 0.01618,0.159802 0,0.02383 0,0.476562 v 4.748047 c 0,0.739556 7.96e-4,1.775112 0.0078,2.679687 0.0035,0.452288 0.0092,0.869136 0.01758,1.21875 0.0078,0.325808 -0.03602,0.35091 0.07227,1.042969 0.50195,3.678922 3.190115,6.157368 5.478515,7.16211 2.299385,1.009564 4.328677,1.065294 5.09375,1.080078 0.854515,0.01651 2.011506,-0.02136 3.367188,-0.833985 1.355682,-0.81262 2.525391,-2.808615 2.525391,-4.61914 0,-2.101331 -1.674838,-3.84977 -2.8125,-4.408203 -1.137663,-0.558434 -1.667841,-0.628907 -2.628907,-0.628907 h -0.03906 -0.04102 c -0.491991,0.01098 -0.313718,0.02697 -0.285156,0.03516 v -9.111329 c 0,-0.709514 -0.08169,-1.663977 -0.734375,-3.091796 -0.181367,-0.396762 -0.537294,-0.824644 -0.820313,-1.244141 0.283019,-0.419497 0.638946,-0.847379 0.820313,-1.244141 0.652682,-1.42782 0.734375,-2.382285 0.734375,-3.091797 v -9.111328 c -0.02856,0.0082 -0.206834,0.02418 0.285156,0.03516 h 0.04102 0.03906 c 0.96107,0 1.491244,-0.07047 2.628907,-0.628907 1.137662,-0.558433 2.8125,-2.306872 2.8125,-4.408203 0,-1.810525 -1.169708,-3.806518 -2.525391,-4.61914 -1.355683,-0.812623 -2.512661,-0.850504 -3.367188,-0.833985 z m 0.451172,3.378907 h 0.07813 c -0.150949,-0.0034 -0.283564,0.06439 -0.433593,0.06836 0.0138,-0.036 -0.09719,-0.06836 0.355468,-0.06836 z M 29.375,56.083984 c 0.1695,0.0056 0.319521,0.08193 0.490234,0.07813 l -0.07813,0.002 c -0.524974,0 -0.347373,-0.01621 -0.412109,-0.08008 z" style="color:#000;-inkscape-font-specification:'Latin Modern Mono';fill:#2e3436;stroke-linecap:round;-inkscape-stroke:none;paint-order:markers stroke fill"/><path id="path5" d="m 29.404828,15.292406 c 0.897487,-0.01735 2.267456,0.263607 2.267456,1.899385 0,1.26641 -1.568678,1.480964 -1.885495,1.480964 -2.960829,-0.06605 -3.920303,1.709477 -3.920303,3.239718 v 9.392753 c 0,0.209247 -0.10679,2.647961 -2.989708,4.33525 2.882918,1.68729 2.989708,4.126004 2.989708,4.33525 v 9.392753 c 0,1.530242 0.959474,3.305766 3.920303,3.239719 0.316817,0 1.885495,0.214553 1.885495,1.480964 0,1.635777 -1.369969,1.916731 -2.267456,1.899385 -1.086773,-0.021 -6.494556,-0.328881 -7.128769,-5.196397 -0.0528,-0.316603 -0.05382,-2.955 -0.05382,-4.432477 v -4.748462 c 0,-1.899613 -0.08593,-3.155195 -2.138978,-3.816131 -1.137954,-0.375942 -1.946855,-0.376752 -2.70671,-0.376752 -1.110931,0 -1.590344,-0.511443 -1.590344,-1.777852 0,-1.266408 0.479413,-1.777852 1.590344,-1.777852 0.759855,0 1.568756,-8.1e-4 2.70671,-0.376751 2.053043,-0.660937 2.138978,-1.916519 2.138978,-3.816132 v -4.748462 c 0,-1.477476 0.001,-4.115873 0.05382,-4.432476 0.634213,-4.867516 6.041996,-5.175397 7.128769,-5.196397 z" style="color:#000;-inkscape-font-specification:'Latin Modern Mono';fill:#fff;stroke-linecap:round;-inkscape-stroke:none;paint-order:markers stroke fill"/></g></g></g></g></g></svg>