<svg xmlns="http://www.w3.org/2000/svg" xmlns:svg="http://www.w3.org/2000/svg" xmlns:xlink="http://www.w3.org/1999/xlink" id="svg11300" width="64" height="64" version="1.1"><defs id="defs3"><linearGradient id="linearGradient3873"><stop style="stop-color:#fff;stop-opacity:1" id="stop3875" offset="0"/><stop style="stop-color:#d3d7cf;stop-opacity:1" id="stop3877" offset="1"/></linearGradient><radialGradient id="radialGradient3163" cx="43.783" cy="41.446" r="12.458" fx="43.783" fy="41.446" gradientTransform="matrix(0.57142881,0.57142866,-0.9230769,0.92307704,56.905976,-22.610628)" gradientUnits="userSpaceOnUse" xlink:href="#linearGradient3857"/><linearGradient id="linearGradient3857"><stop style="stop-color:#34e0e2;stop-opacity:1" id="stop3859" offset="0"/><stop style="stop-color:#06989a;stop-opacity:1" id="stop3861" offset="1"/></linearGradient><linearGradient id="linearGradient3863"><stop style="stop-color:#34e0e2;stop-opacity:1" id="stop3865" offset="0"/><stop style="stop-color:#16d0d2;stop-opacity:1" id="stop3867" offset="1"/></linearGradient><linearGradient id="linearGradient3908" x1="139.618" x2="140.734" y1="38.503" y2="44.08" gradientTransform="matrix(1.7932228,0,0,1.7932228,-206.36667,-43.044388)" gradientUnits="userSpaceOnUse" xlink:href="#linearGradient3863"/><linearGradient id="linearGradient4221" x1="127.499" x2="129.432" y1="-.161" y2="57.091" gradientTransform="matrix(2.0691034,0,0,0.48906084,-241.80772,-5.9211985)" gradientUnits="userSpaceOnUse" xlink:href="#linearGradient3873"/><linearGradient id="linearGradient1" x1="127.499" x2="129.432" y1="-.161" y2="57.091" gradientTransform="matrix(-2.0691034,0,0,-0.48906084,289.80772,21.921198)" gradientUnits="userSpaceOnUse" xlink:href="#linearGradient3873"/></defs><metadata id="metadata4"/><g id="layer1" transform="translate(0,16)"><path id="rect3057" d="m 32.131959,23.304845 7.172892,-7.172891 21.518673,21.518702 -7.172891,7.172868 z" style="fill:url(#linearGradient3908);fill-opacity:1;stroke:#042a2a;stroke-width:2;stroke-linecap:round;stroke-linejoin:round;stroke-miterlimit:4;stroke-opacity:1;stroke-dashoffset:2.04"/><path id="path3865" d="M 58.681573,38.333467 40.749345,20.401248" style="fill:none;stroke:#34e0e2;stroke-width:2;stroke-linecap:butt;stroke-linejoin:miter;stroke-opacity:1"/><path id="path3055" d="m 59,44.5 a 11.5,11.5 0 1 1 -23,0 11.5,11.5 0 1 1 23,0 z" transform="matrix(1.826087,0,0,1.8260868,-62.739135,-73.260863)" style="fill:url(#radialGradient3163);fill-opacity:1;stroke:#042a2a;stroke-width:1.09523809;stroke-linecap:round;stroke-linejoin:round;stroke-miterlimit:4;stroke-opacity:1;stroke-dasharray:none;stroke-dashoffset:2.04"/><path id="path3055-1" d="m 59,44.5 a 11.5,11.5 0 1 1 -23,0 11.5,11.5 0 1 1 23,0 z" transform="matrix(1.6521739,0,0,1.6521739,-54.47826,-65.521736)" style="fill:none;stroke:#34e0e2;stroke-width:1.21052635;stroke-linecap:round;stroke-linejoin:round;stroke-miterlimit:4;stroke-opacity:1;stroke-dasharray:none;stroke-dashoffset:2.04"/><path style="fill:url(#linearGradient4221);fill-opacity:1;stroke:#042a2a;stroke-width:2;stroke-linecap:round;stroke-linejoin:round;stroke-miterlimit:4;stroke-dashoffset:0;stroke-opacity:1" id="rect3871" d="M 17,2 24,-9 31,2 Z M 18,15 7,8 18,1 Z"/><path style="fill:url(#linearGradient1);fill-opacity:1;stroke:#042a2a;stroke-width:2;stroke-linecap:round;stroke-linejoin:round;stroke-miterlimit:4;stroke-dashoffset:0;stroke-opacity:1" id="rect3871-7" d="M 31,14 24,25 17,14 Z M 30,1 41,8 30,15 Z"/></g></svg>