<svg xmlns="http://www.w3.org/2000/svg" xmlns:svg="http://www.w3.org/2000/svg" id="Layer_1" width="12" height="12" x="0" y="0" enable-background="new 0 0 32 32" version="1.1" viewBox="0 0 12 12" xml:space="preserve"><metadata id="metadata7"/><defs id="defs5"><marker style="overflow:visible" id="Arrow2Mend-5" orient="auto" refX="0" refY="0"><path style="font-size:12px;fill-rule:evenodd;stroke-width:.625;stroke-linejoin:round" id="path45132-1" d="M 8.7185878,4.0337352 -2.2072895,0.01601326 8.7185884,-4.0017078 c -1.7454984,2.3720609 -1.7354408,5.6174519 -6e-7,8.035443 z" transform="scale(-0.6,-0.6)"/></marker><marker style="overflow:visible" id="DotM-00" orient="auto" refX="0" refY="0"><path style="fill-rule:evenodd;stroke:#000;stroke-width:1pt;marker-start:none;marker-end:none" id="path14329-2" d="m -2.5,-1 c 0,2.76 -2.24,5 -5,5 -2.76,0 -5,-2.24 -5,-5 0,-2.76 2.24,-5 5,-5 2.76,0 5,2.24 5,5 z" transform="matrix(0.4,0,0,0.4,2.96,0.4)"/></marker><marker style="overflow:visible" id="Arrow2Mend-07" orient="auto" refX="0" refY="0"><path style="font-size:12px;fill-rule:evenodd;stroke-width:.625;stroke-linejoin:round" id="path45132-31" d="M 8.7185878,4.0337352 -2.2072895,0.01601326 8.7185884,-4.0017078 c -1.7454984,2.3720609 -1.7354408,5.6174519 -6e-7,8.035443 z" transform="scale(-0.6,-0.6)"/></marker><marker style="overflow:visible" id="DotM-0" orient="auto" refX="0" refY="0"><path style="fill-rule:evenodd;stroke:#000;stroke-width:1pt;marker-start:none;marker-end:none" id="path14329-94" d="m -2.5,-1 c 0,2.76 -2.24,5 -5,5 -2.76,0 -5,-2.24 -5,-5 0,-2.76 2.24,-5 5,-5 2.76,0 5,2.24 5,5 z" transform="matrix(0.4,0,0,0.4,2.96,0.4)"/></marker><marker style="overflow:visible" id="Arrow2Mend-6" orient="auto" refX="0" refY="0"><path style="font-size:12px;fill-rule:evenodd;stroke-width:.625;stroke-linejoin:round" id="path45132-8" d="M 8.7185878,4.0337352 -2.2072895,0.01601326 8.7185884,-4.0017078 c -1.7454984,2.3720609 -1.7354408,5.6174519 -6e-7,8.035443 z" transform="scale(-0.6,-0.6)"/></marker><marker style="overflow:visible" id="DotM-8" orient="auto" refX="0" refY="0"><path style="fill-rule:evenodd;stroke:#000;stroke-width:1pt;marker-start:none;marker-end:none" id="path14329-91" d="m -2.5,-1 c 0,2.76 -2.24,5 -5,5 -2.76,0 -5,-2.24 -5,-5 0,-2.76 2.24,-5 5,-5 2.76,0 5,2.24 5,5 z" transform="matrix(0.4,0,0,0.4,2.96,0.4)"/></marker><clipPath id="clipPath3169-2" clipPathUnits="userSpaceOnUse"><rect style="fill:#f5f5f4;fill-opacity:1;stroke:#888a85;stroke-width:2;stroke-miterlimit:4;stroke-dasharray:none;stroke-dashoffset:0;stroke-opacity:1" id="rect3171-7" width="748.776" height="428.81" x="48.992" y="105.344"/></clipPath><clipPath id="clipPath22-7" clipPathUnits="userSpaceOnUse"><path id="path24-2" d="M 0,792 1224,792 1224,0 0,0 0,792 Z"/></clipPath><clipPath id="clipPath6483-7" clipPathUnits="userSpaceOnUse"><rect style="fill:#fff;fill-opacity:1;stroke:none" id="rect6485-5" width="548" height="280" x="67.578" y="187.656"/></clipPath><clipPath id="clipPath10152" clipPathUnits="userSpaceOnUse"><rect id="rect10154" width="718.587" height="140.174" x="-37.134" y="754.147" style="fill:#555753;fill-opacity:1;stroke:#555753;stroke-width:1.83322382;stroke-miterlimit:4;stroke-dasharray:none;stroke-dashoffset:0;stroke-opacity:1"/></clipPath><marker style="overflow:visible" id="Arrow2Mend-0" orient="auto" refX="0" refY="0"><path style="font-size:12px;fill-rule:evenodd;stroke-width:.625;stroke-linejoin:round" id="path45132-982" d="M 8.7185878,4.0337352 -2.2072895,0.01601326 8.7185884,-4.0017078 c -1.7454984,2.3720609 -1.7354408,5.6174519 -6e-7,8.035443 z" transform="scale(-0.6,-0.6)"/></marker><marker style="overflow:visible" id="DotM-2" orient="auto" refX="0" refY="0"><path style="fill-rule:evenodd;stroke:#000;stroke-width:1pt;marker-start:none;marker-end:none" id="path14329-95" d="m -2.5,-1 c 0,2.76 -2.24,5 -5,5 -2.76,0 -5,-2.24 -5,-5 0,-2.76 2.24,-5 5,-5 2.76,0 5,2.24 5,5 z" transform="matrix(0.4,0,0,0.4,2.96,0.4)"/></marker><marker style="overflow:visible" id="Arrow2Mend-2" orient="auto" refX="0" refY="0"><path style="font-size:12px;fill-rule:evenodd;stroke-width:.625;stroke-linejoin:round" id="path45132-98" d="M 8.7185878,4.0337352 -2.2072895,0.01601326 8.7185884,-4.0017078 c -1.7454984,2.3720609 -1.7354408,5.6174519 -6e-7,8.035443 z" transform="scale(-0.6,-0.6)"/></marker><marker style="overflow:visible" id="DotM-5" orient="auto" refX="0" refY="0"><path style="fill-rule:evenodd;stroke:#000;stroke-width:1pt;marker-start:none;marker-end:none" id="path14329-1" d="m -2.5,-1 c 0,2.76 -2.24,5 -5,5 -2.76,0 -5,-2.24 -5,-5 0,-2.76 2.24,-5 5,-5 2.76,0 5,2.24 5,5 z" transform="matrix(0.4,0,0,0.4,2.96,0.4)"/></marker><marker style="overflow:visible" id="Arrow2Mend-75" orient="auto" refX="0" refY="0"><path style="font-size:12px;fill-rule:evenodd;stroke-width:.625;stroke-linejoin:round" id="path45132-9" d="M 8.7185878,4.0337352 -2.2072895,0.01601326 8.7185884,-4.0017078 c -1.7454984,2.3720609 -1.7354408,5.6174519 -6e-7,8.035443 z" transform="scale(-0.6,-0.6)"/></marker><marker style="overflow:visible" id="DotM-466" orient="auto" refX="0" refY="0"><path style="fill-rule:evenodd;stroke:#000;stroke-width:1pt;marker-start:none;marker-end:none" id="path14329-32" d="m -2.5,-1 c 0,2.76 -2.24,5 -5,5 -2.76,0 -5,-2.24 -5,-5 0,-2.76 2.24,-5 5,-5 2.76,0 5,2.24 5,5 z" transform="matrix(0.4,0,0,0.4,2.96,0.4)"/></marker><marker style="overflow:visible" id="marker32938" orient="auto" refX="0" refY="0"><path style="font-size:12px;fill-rule:evenodd;stroke-width:.625;stroke-linejoin:round" id="path32940" d="M 8.7185878,4.0337352 -2.2072895,0.01601326 8.7185884,-4.0017078 c -1.7454984,2.3720609 -1.7354408,5.6174519 -6e-7,8.035443 z" transform="scale(-0.6,-0.6)"/></marker><marker style="overflow:visible" id="marker32934" orient="auto" refX="0" refY="0"><path style="fill-rule:evenodd;stroke:#000;stroke-width:1pt;marker-start:none;marker-end:none" id="path32936" d="m -2.5,-1 c 0,2.76 -2.24,5 -5,5 -2.76,0 -5,-2.24 -5,-5 0,-2.76 2.24,-5 5,-5 2.76,0 5,2.24 5,5 z" transform="matrix(0.4,0,0,0.4,2.96,0.4)"/></marker><marker style="overflow:visible" id="Arrow2Mend-7" orient="auto" refX="0" refY="0"><path style="font-size:12px;fill-rule:evenodd;stroke-width:.625;stroke-linejoin:round" id="path45132-2" d="M 8.7185878,4.0337352 -2.2072895,0.01601326 8.7185884,-4.0017078 c -1.7454984,2.3720609 -1.7354408,5.6174519 -6e-7,8.035443 z" transform="scale(-0.6,-0.6)"/></marker><marker style="overflow:visible" id="DotM-46" orient="auto" refX="0" refY="0"><path style="fill-rule:evenodd;stroke:#000;stroke-width:1pt;marker-start:none;marker-end:none" id="path14329-9" d="m -2.5,-1 c 0,2.76 -2.24,5 -5,5 -2.76,0 -5,-2.24 -5,-5 0,-2.76 2.24,-5 5,-5 2.76,0 5,2.24 5,5 z" transform="matrix(0.4,0,0,0.4,2.96,0.4)"/></marker><marker style="overflow:visible" id="Arrow2Mend-3" orient="auto" refX="0" refY="0"><path style="font-size:12px;fill-rule:evenodd;stroke-width:.625;stroke-linejoin:round" id="path45132-3" d="M 8.7185878,4.0337352 -2.2072895,0.01601326 8.7185884,-4.0017078 c -1.7454984,2.3720609 -1.7354408,5.6174519 -6e-7,8.035443 z" transform="scale(-0.6,-0.6)"/></marker><marker style="overflow:visible" id="DotM-42" orient="auto" refX="0" refY="0"><path style="fill-rule:evenodd;stroke:#000;stroke-width:1pt;marker-start:none;marker-end:none" id="path14329-3" d="m -2.5,-1 c 0,2.76 -2.24,5 -5,5 -2.76,0 -5,-2.24 -5,-5 0,-2.76 2.24,-5 5,-5 2.76,0 5,2.24 5,5 z" transform="matrix(0.4,0,0,0.4,2.96,0.4)"/></marker><marker style="overflow:visible" id="Arrow2Mend-9" orient="auto" refX="0" refY="0"><path style="font-size:12px;fill-rule:evenodd;stroke-width:.625;stroke-linejoin:round" id="path45132-4" d="M 8.7185878,4.0337352 -2.2072895,0.01601326 8.7185884,-4.0017078 c -1.7454984,2.3720609 -1.7354408,5.6174519 -6e-7,8.035443 z" transform="scale(-0.6,-0.6)"/></marker><marker style="overflow:visible" id="DotM-4" orient="auto" refX="0" refY="0"><path style="fill-rule:evenodd;stroke:#000;stroke-width:1pt;marker-start:none;marker-end:none" id="path14329-8" d="m -2.5,-1 c 0,2.76 -2.24,5 -5,5 -2.76,0 -5,-2.24 -5,-5 0,-2.76 2.24,-5 5,-5 2.76,0 5,2.24 5,5 z" transform="matrix(0.4,0,0,0.4,2.96,0.4)"/></marker><clipPath id="clipPath6483-5" clipPathUnits="userSpaceOnUse"><rect id="rect6485-2" width="548" height="280" x="67.578" y="187.656" style="fill:#fff;fill-opacity:1;stroke:none"/></clipPath><clipPath id="clipPath6483-1-7-3-0" clipPathUnits="userSpaceOnUse"><rect id="rect6485-6-4-5-6" width="548" height="280" x="67.578" y="187.656" style="fill:#fff;fill-opacity:1;stroke:none"/></clipPath><marker style="overflow:visible" id="Arrow2Lend-0" orient="auto" refX="0" refY="0"><path style="font-size:12px;fill-rule:evenodd;stroke-width:.625;stroke-linejoin:round" id="path45126-6" d="M 8.7185878,4.0337352 -2.2072895,0.01601326 8.7185884,-4.0017078 c -1.7454984,2.3720609 -1.7354408,5.6174519 -6e-7,8.035443 z" transform="matrix(-1.1,0,0,-1.1,-1.1,0)"/></marker><clipPath id="clipPath6483-1-7-3-9" clipPathUnits="userSpaceOnUse"><rect id="rect6485-6-4-5-8" width="548" height="280" x="67.578" y="187.656" style="fill:#fff;fill-opacity:1;stroke:none"/></clipPath><clipPath id="clipPath6483-1-7-3" clipPathUnits="userSpaceOnUse"><rect id="rect6485-6-4-5" width="548" height="280" x="67.578" y="187.656" style="fill:#fff;fill-opacity:1;stroke:none"/></clipPath><clipPath id="clipPath6483-1-7" clipPathUnits="userSpaceOnUse"><rect id="rect6485-6-4" width="548" height="280" x="67.578" y="187.656" style="fill:#fff;fill-opacity:1;stroke:none"/></clipPath><clipPath id="clipPath6483-1" clipPathUnits="userSpaceOnUse"><rect id="rect6485-6" width="548" height="280" x="67.578" y="187.656" style="fill:#fff;fill-opacity:1;stroke:none"/></clipPath><clipPath id="clipPath6483" clipPathUnits="userSpaceOnUse"><rect id="rect6485" width="548" height="280" x="67.578" y="187.656" style="fill:#fff;fill-opacity:1;stroke:none"/></clipPath><clipPath id="clipPath22" clipPathUnits="userSpaceOnUse"><path id="path24" d="M 0,792 1224,792 1224,0 0,0 0,792 Z"/></clipPath><clipPath id="clipPath3169" clipPathUnits="userSpaceOnUse"><rect id="rect3171" width="748.776" height="428.81" x="48.992" y="105.344" style="fill:#f5f5f4;fill-opacity:1;stroke:#888a85;stroke-width:2;stroke-miterlimit:4;stroke-dasharray:none;stroke-dashoffset:0;stroke-opacity:1"/></clipPath><marker style="overflow:visible" id="Arrow2Lend" orient="auto" refX="0" refY="0"><path style="font-size:12px;fill-rule:evenodd;stroke-width:.625;stroke-linejoin:round" id="path45126" d="M 8.7185878,4.0337352 -2.2072895,0.01601326 8.7185884,-4.0017078 c -1.7454984,2.3720609 -1.7354408,5.6174519 -6e-7,8.035443 z" transform="matrix(-1.1,0,0,-1.1,-1.1,0)"/></marker><marker style="overflow:visible" id="Arrow2Mend" orient="auto" refX="0" refY="0"><path style="font-size:12px;fill-rule:evenodd;stroke-width:.625;stroke-linejoin:round" id="path45132" d="M 8.7185878,4.0337352 -2.2072895,0.01601326 8.7185884,-4.0017078 c -1.7454984,2.3720609 -1.7354408,5.6174519 -6e-7,8.035443 z" transform="scale(-0.6,-0.6)"/></marker><marker style="overflow:visible" id="DotL" orient="auto" refX="0" refY="0"><path style="fill-rule:evenodd;stroke:#000;stroke-width:1pt;marker-start:none;marker-end:none" id="path14326" d="m -2.5,-1 c 0,2.76 -2.24,5 -5,5 -2.76,0 -5,-2.24 -5,-5 0,-2.76 2.24,-5 5,-5 2.76,0 5,2.24 5,5 z" transform="matrix(0.8,0,0,0.8,5.92,0.8)"/></marker><marker style="overflow:visible" id="DotM" orient="auto" refX="0" refY="0"><path style="fill-rule:evenodd;stroke:#000;stroke-width:1pt;marker-start:none;marker-end:none" id="path14329" d="m -2.5,-1 c 0,2.76 -2.24,5 -5,5 -2.76,0 -5,-2.24 -5,-5 0,-2.76 2.24,-5 5,-5 2.76,0 5,2.24 5,5 z" transform="matrix(0.4,0,0,0.4,2.96,0.4)"/></marker></defs><path style="fill:#000;fill-opacity:.50196081;stroke:none" id="rect3381-0" d="m 5.3088424,0.99999985 c -0.1655795,0 -0.2988797,0.13330005 -0.2988797,0.29887945 l 0,0.7596513 C 4.6233539,2.1545047 4.2512452,2.3089734 3.901619,2.5193031 L 3.3661272,1.9838109 c -0.1170822,-0.1170822 -0.3063302,-0.1170822 -0.4234123,0 L 1.9713574,2.9551681 c -0.117082,0.1170825 -0.117082,0.30633 0,0.4234126 L 2.5068493,3.9140729 C 2.298166,4.2626775 2.1534641,4.6390057 2.0585306,5.022416 l -0.7596513,0 C 1.1333002,5.022416 1,5.155716 1,5.3212942 L 1,6.6911576 C 1,6.8567371 1.1333002,6.990037 1.2988793,6.990037 l 0.747198,0 c 0.095958,0.3869534 0.250266,0.7584235 0.460772,1.1083435 L 1.9713574,8.6338727 c -0.117082,0.1170816 -0.117082,0.3063301 0,0.4234133 l 0.9713575,0.971357 c 0.1170821,0.117082 0.3063301,0.117082 0.4234123,0 L 3.901619,9.49315 c 0.3511539,0.211788 0.721667,0.35231 1.1083437,0.448319 l 0,0.759652 C 5.0099627,10.8667 5.1432629,11 5.3088424,11 l 1.3698634,0 C 6.844284,11 6.977584,10.8667 6.977584,10.701121 l 0,-0.759652 C 7.3650872,9.845969 7.7354543,9.703417 8.0859277,9.49315 L 8.62142,10.028643 c 0.1170825,0.117082 0.30633,0.117082 0.4234125,0 L 10.01619,9.057286 c 0.117082,-0.1170832 0.117082,-0.3063317 0,-0.4234133 L 9.4806975,8.0983805 C 9.6914638,7.7490936 9.8452748,7.374642 9.9414697,6.9900373 l 0.7596523,0 C 10.8667,6.990037 11,6.8567371 11,6.6911576 L 11,5.3212954 C 11,5.155716 10.8667,5.022416 10.701122,5.022416 l -0.7596523,0 C 9.8460744,4.6381401 9.6890735,4.2618923 9.4806975,3.9140729 L 10.01619,3.3785807 c 0.117082,-0.1170826 0.117082,-0.3063301 0,-0.4234126 L 9.0448325,1.9838109 c -0.1170825,-0.1170822 -0.30633,-0.1170822 -0.4234125,0 L 8.0859277,2.5193031 C 7.7359781,2.3092543 7.3626909,2.1538256 6.977584,2.0585306 l 0,-0.7596513 c 0,-0.1655794 -0.1333,-0.29887945 -0.2988782,-0.29887945 l -1.3698634,0 z M 5.9439602,4.1133251 C 6.428224,4.1004688 6.9220833,4.2642341 7.3013702,4.62391 8.0599431,5.343262 8.0954412,6.5427967 7.37609,7.3013699 6.6585136,8.0580702 5.4578324,8.091019 4.6986301,7.3760895 3.9400574,6.6567376 3.9045588,5.4572029 4.6239105,4.6986298 4.9835867,4.3193435 5.4596967,4.1261769 5.9439602,4.1133253 Z"/></svg>