<svg xmlns="http://www.w3.org/2000/svg" xmlns:svg="http://www.w3.org/2000/svg" id="Layer_1" width="12" height="12" x="0" y="0" enable-background="new 0 0 32 32" version="1.1" viewBox="0 0 12 12" xml:space="preserve"><metadata id="metadata7"/><defs id="defs5"><marker style="overflow:visible" id="Arrow2Mend-5" orient="auto" refX="0" refY="0"><path style="font-size:12px;fill-rule:evenodd;stroke-width:.625;stroke-linejoin:round" id="path45132-1" d="M 8.7185878,4.0337352 -2.2072895,0.01601326 8.7185884,-4.0017078 c -1.7454984,2.3720609 -1.7354408,5.6174519 -6e-7,8.035443 z" transform="scale(-0.6,-0.6)"/></marker><marker style="overflow:visible" id="DotM-00" orient="auto" refX="0" refY="0"><path style="fill-rule:evenodd;stroke:#000;stroke-width:1pt;marker-start:none;marker-end:none" id="path14329-2" d="m -2.5,-1 c 0,2.76 -2.24,5 -5,5 -2.76,0 -5,-2.24 -5,-5 0,-2.76 2.24,-5 5,-5 2.76,0 5,2.24 5,5 z" transform="matrix(0.4,0,0,0.4,2.96,0.4)"/></marker><marker style="overflow:visible" id="Arrow2Mend-07" orient="auto" refX="0" refY="0"><path style="font-size:12px;fill-rule:evenodd;stroke-width:.625;stroke-linejoin:round" id="path45132-31" d="M 8.7185878,4.0337352 -2.2072895,0.01601326 8.7185884,-4.0017078 c -1.7454984,2.3720609 -1.7354408,5.6174519 -6e-7,8.035443 z" transform="scale(-0.6,-0.6)"/></marker><marker style="overflow:visible" id="DotM-0" orient="auto" refX="0" refY="0"><path style="fill-rule:evenodd;stroke:#000;stroke-width:1pt;marker-start:none;marker-end:none" id="path14329-94" d="m -2.5,-1 c 0,2.76 -2.24,5 -5,5 -2.76,0 -5,-2.24 -5,-5 0,-2.76 2.24,-5 5,-5 2.76,0 5,2.24 5,5 z" transform="matrix(0.4,0,0,0.4,2.96,0.4)"/></marker><marker style="overflow:visible" id="Arrow2Mend-6" orient="auto" refX="0" refY="0"><path style="font-size:12px;fill-rule:evenodd;stroke-width:.625;stroke-linejoin:round" id="path45132-8" d="M 8.7185878,4.0337352 -2.2072895,0.01601326 8.7185884,-4.0017078 c -1.7454984,2.3720609 -1.7354408,5.6174519 -6e-7,8.035443 z" transform="scale(-0.6,-0.6)"/></marker><marker style="overflow:visible" id="DotM-8" orient="auto" refX="0" refY="0"><path style="fill-rule:evenodd;stroke:#000;stroke-width:1pt;marker-start:none;marker-end:none" id="path14329-91" d="m -2.5,-1 c 0,2.76 -2.24,5 -5,5 -2.76,0 -5,-2.24 -5,-5 0,-2.76 2.24,-5 5,-5 2.76,0 5,2.24 5,5 z" transform="matrix(0.4,0,0,0.4,2.96,0.4)"/></marker><clipPath id="clipPath3169-2" clipPathUnits="userSpaceOnUse"><rect style="fill:#f5f5f4;fill-opacity:1;stroke:#888a85;stroke-width:2;stroke-miterlimit:4;stroke-dasharray:none;stroke-dashoffset:0;stroke-opacity:1" id="rect3171-7" width="748.776" height="428.81" x="48.992" y="105.344"/></clipPath><clipPath id="clipPath22-7" clipPathUnits="userSpaceOnUse"><path id="path24-2" d="M 0,792 1224,792 1224,0 0,0 0,792 Z"/></clipPath><clipPath id="clipPath6483-7" clipPathUnits="userSpaceOnUse"><rect style="fill:#fff;fill-opacity:1;stroke:none" id="rect6485-5" width="548" height="280" x="67.578" y="187.656"/></clipPath><clipPath id="clipPath10152" clipPathUnits="userSpaceOnUse"><rect id="rect10154" width="718.587" height="140.174" x="-37.134" y="754.147" style="fill:#555753;fill-opacity:1;stroke:#555753;stroke-width:1.83322382;stroke-miterlimit:4;stroke-dasharray:none;stroke-dashoffset:0;stroke-opacity:1"/></clipPath><marker style="overflow:visible" id="Arrow2Mend-0" orient="auto" refX="0" refY="0"><path style="font-size:12px;fill-rule:evenodd;stroke-width:.625;stroke-linejoin:round" id="path45132-982" d="M 8.7185878,4.0337352 -2.2072895,0.01601326 8.7185884,-4.0017078 c -1.7454984,2.3720609 -1.7354408,5.6174519 -6e-7,8.035443 z" transform="scale(-0.6,-0.6)"/></marker><marker style="overflow:visible" id="DotM-2" orient="auto" refX="0" refY="0"><path style="fill-rule:evenodd;stroke:#000;stroke-width:1pt;marker-start:none;marker-end:none" id="path14329-95" d="m -2.5,-1 c 0,2.76 -2.24,5 -5,5 -2.76,0 -5,-2.24 -5,-5 0,-2.76 2.24,-5 5,-5 2.76,0 5,2.24 5,5 z" transform="matrix(0.4,0,0,0.4,2.96,0.4)"/></marker><marker style="overflow:visible" id="Arrow2Mend-2" orient="auto" refX="0" refY="0"><path style="font-size:12px;fill-rule:evenodd;stroke-width:.625;stroke-linejoin:round" id="path45132-98" d="M 8.7185878,4.0337352 -2.2072895,0.01601326 8.7185884,-4.0017078 c -1.7454984,2.3720609 -1.7354408,5.6174519 -6e-7,8.035443 z" transform="scale(-0.6,-0.6)"/></marker><marker style="overflow:visible" id="DotM-5" orient="auto" refX="0" refY="0"><path style="fill-rule:evenodd;stroke:#000;stroke-width:1pt;marker-start:none;marker-end:none" id="path14329-1" d="m -2.5,-1 c 0,2.76 -2.24,5 -5,5 -2.76,0 -5,-2.24 -5,-5 0,-2.76 2.24,-5 5,-5 2.76,0 5,2.24 5,5 z" transform="matrix(0.4,0,0,0.4,2.96,0.4)"/></marker><marker style="overflow:visible" id="Arrow2Mend-75" orient="auto" refX="0" refY="0"><path style="font-size:12px;fill-rule:evenodd;stroke-width:.625;stroke-linejoin:round" id="path45132-9" d="M 8.7185878,4.0337352 -2.2072895,0.01601326 8.7185884,-4.0017078 c -1.7454984,2.3720609 -1.7354408,5.6174519 -6e-7,8.035443 z" transform="scale(-0.6,-0.6)"/></marker><marker style="overflow:visible" id="DotM-466" orient="auto" refX="0" refY="0"><path style="fill-rule:evenodd;stroke:#000;stroke-width:1pt;marker-start:none;marker-end:none" id="path14329-32" d="m -2.5,-1 c 0,2.76 -2.24,5 -5,5 -2.76,0 -5,-2.24 -5,-5 0,-2.76 2.24,-5 5,-5 2.76,0 5,2.24 5,5 z" transform="matrix(0.4,0,0,0.4,2.96,0.4)"/></marker><marker style="overflow:visible" id="marker32938" orient="auto" refX="0" refY="0"><path style="font-size:12px;fill-rule:evenodd;stroke-width:.625;stroke-linejoin:round" id="path32940" d="M 8.7185878,4.0337352 -2.2072895,0.01601326 8.7185884,-4.0017078 c -1.7454984,2.3720609 -1.7354408,5.6174519 -6e-7,8.035443 z" transform="scale(-0.6,-0.6)"/></marker><marker style="overflow:visible" id="marker32934" orient="auto" refX="0" refY="0"><path style="fill-rule:evenodd;stroke:#000;stroke-width:1pt;marker-start:none;marker-end:none" id="path32936" d="m -2.5,-1 c 0,2.76 -2.24,5 -5,5 -2.76,0 -5,-2.24 -5,-5 0,-2.76 2.24,-5 5,-5 2.76,0 5,2.24 5,5 z" transform="matrix(0.4,0,0,0.4,2.96,0.4)"/></marker><marker style="overflow:visible" id="Arrow2Mend-7" orient="auto" refX="0" refY="0"><path style="font-size:12px;fill-rule:evenodd;stroke-width:.625;stroke-linejoin:round" id="path45132-2" d="M 8.7185878,4.0337352 -2.2072895,0.01601326 8.7185884,-4.0017078 c -1.7454984,2.3720609 -1.7354408,5.6174519 -6e-7,8.035443 z" transform="scale(-0.6,-0.6)"/></marker><marker style="overflow:visible" id="DotM-46" orient="auto" refX="0" refY="0"><path style="fill-rule:evenodd;stroke:#000;stroke-width:1pt;marker-start:none;marker-end:none" id="path14329-9" d="m -2.5,-1 c 0,2.76 -2.24,5 -5,5 -2.76,0 -5,-2.24 -5,-5 0,-2.76 2.24,-5 5,-5 2.76,0 5,2.24 5,5 z" transform="matrix(0.4,0,0,0.4,2.96,0.4)"/></marker><marker style="overflow:visible" id="Arrow2Mend-3" orient="auto" refX="0" refY="0"><path style="font-size:12px;fill-rule:evenodd;stroke-width:.625;stroke-linejoin:round" id="path45132-3" d="M 8.7185878,4.0337352 -2.2072895,0.01601326 8.7185884,-4.0017078 c -1.7454984,2.3720609 -1.7354408,5.6174519 -6e-7,8.035443 z" transform="scale(-0.6,-0.6)"/></marker><marker style="overflow:visible" id="DotM-42" orient="auto" refX="0" refY="0"><path style="fill-rule:evenodd;stroke:#000;stroke-width:1pt;marker-start:none;marker-end:none" id="path14329-3" d="m -2.5,-1 c 0,2.76 -2.24,5 -5,5 -2.76,0 -5,-2.24 -5,-5 0,-2.76 2.24,-5 5,-5 2.76,0 5,2.24 5,5 z" transform="matrix(0.4,0,0,0.4,2.96,0.4)"/></marker><marker style="overflow:visible" id="Arrow2Mend-9" orient="auto" refX="0" refY="0"><path style="font-size:12px;fill-rule:evenodd;stroke-width:.625;stroke-linejoin:round" id="path45132-4" d="M 8.7185878,4.0337352 -2.2072895,0.01601326 8.7185884,-4.0017078 c -1.7454984,2.3720609 -1.7354408,5.6174519 -6e-7,8.035443 z" transform="scale(-0.6,-0.6)"/></marker><marker style="overflow:visible" id="DotM-4" orient="auto" refX="0" refY="0"><path style="fill-rule:evenodd;stroke:#000;stroke-width:1pt;marker-start:none;marker-end:none" id="path14329-8" d="m -2.5,-1 c 0,2.76 -2.24,5 -5,5 -2.76,0 -5,-2.24 -5,-5 0,-2.76 2.24,-5 5,-5 2.76,0 5,2.24 5,5 z" transform="matrix(0.4,0,0,0.4,2.96,0.4)"/></marker><clipPath id="clipPath6483-5" clipPathUnits="userSpaceOnUse"><rect id="rect6485-2" width="548" height="280" x="67.578" y="187.656" style="fill:#fff;fill-opacity:1;stroke:none"/></clipPath><clipPath id="clipPath6483-1-7-3-0" clipPathUnits="userSpaceOnUse"><rect id="rect6485-6-4-5-6" width="548" height="280" x="67.578" y="187.656" style="fill:#fff;fill-opacity:1;stroke:none"/></clipPath><marker style="overflow:visible" id="Arrow2Lend-0" orient="auto" refX="0" refY="0"><path style="font-size:12px;fill-rule:evenodd;stroke-width:.625;stroke-linejoin:round" id="path45126-6" d="M 8.7185878,4.0337352 -2.2072895,0.01601326 8.7185884,-4.0017078 c -1.7454984,2.3720609 -1.7354408,5.6174519 -6e-7,8.035443 z" transform="matrix(-1.1,0,0,-1.1,-1.1,0)"/></marker><clipPath id="clipPath6483-1-7-3-9" clipPathUnits="userSpaceOnUse"><rect id="rect6485-6-4-5-8" width="548" height="280" x="67.578" y="187.656" style="fill:#fff;fill-opacity:1;stroke:none"/></clipPath><clipPath id="clipPath6483-1-7-3" clipPathUnits="userSpaceOnUse"><rect id="rect6485-6-4-5" width="548" height="280" x="67.578" y="187.656" style="fill:#fff;fill-opacity:1;stroke:none"/></clipPath><clipPath id="clipPath6483-1-7" clipPathUnits="userSpaceOnUse"><rect id="rect6485-6-4" width="548" height="280" x="67.578" y="187.656" style="fill:#fff;fill-opacity:1;stroke:none"/></clipPath><clipPath id="clipPath6483-1" clipPathUnits="userSpaceOnUse"><rect id="rect6485-6" width="548" height="280" x="67.578" y="187.656" style="fill:#fff;fill-opacity:1;stroke:none"/></clipPath><clipPath id="clipPath6483" clipPathUnits="userSpaceOnUse"><rect id="rect6485" width="548" height="280" x="67.578" y="187.656" style="fill:#fff;fill-opacity:1;stroke:none"/></clipPath><clipPath id="clipPath22" clipPathUnits="userSpaceOnUse"><path id="path24" d="M 0,792 1224,792 1224,0 0,0 0,792 Z"/></clipPath><clipPath id="clipPath3169" clipPathUnits="userSpaceOnUse"><rect id="rect3171" width="748.776" height="428.81" x="48.992" y="105.344" style="fill:#f5f5f4;fill-opacity:1;stroke:#888a85;stroke-width:2;stroke-miterlimit:4;stroke-dasharray:none;stroke-dashoffset:0;stroke-opacity:1"/></clipPath><marker style="overflow:visible" id="Arrow2Lend" orient="auto" refX="0" refY="0"><path style="font-size:12px;fill-rule:evenodd;stroke-width:.625;stroke-linejoin:round" id="path45126" d="M 8.7185878,4.0337352 -2.2072895,0.01601326 8.7185884,-4.0017078 c -1.7454984,2.3720609 -1.7354408,5.6174519 -6e-7,8.035443 z" transform="matrix(-1.1,0,0,-1.1,-1.1,0)"/></marker><marker style="overflow:visible" id="Arrow2Mend" orient="auto" refX="0" refY="0"><path style="font-size:12px;fill-rule:evenodd;stroke-width:.625;stroke-linejoin:round" id="path45132" d="M 8.7185878,4.0337352 -2.2072895,0.01601326 8.7185884,-4.0017078 c -1.7454984,2.3720609 -1.7354408,5.6174519 -6e-7,8.035443 z" transform="scale(-0.6,-0.6)"/></marker><marker style="overflow:visible" id="DotL" orient="auto" refX="0" refY="0"><path style="fill-rule:evenodd;stroke:#000;stroke-width:1pt;marker-start:none;marker-end:none" id="path14326" d="m -2.5,-1 c 0,2.76 -2.24,5 -5,5 -2.76,0 -5,-2.24 -5,-5 0,-2.76 2.24,-5 5,-5 2.76,0 5,2.24 5,5 z" transform="matrix(0.8,0,0,0.8,5.92,0.8)"/></marker><marker style="overflow:visible" id="DotM" orient="auto" refX="0" refY="0"><path style="fill-rule:evenodd;stroke:#000;stroke-width:1pt;marker-start:none;marker-end:none" id="path14329" d="m -2.5,-1 c 0,2.76 -2.24,5 -5,5 -2.76,0 -5,-2.24 -5,-5 0,-2.76 2.24,-5 5,-5 2.76,0 5,2.24 5,5 z" transform="matrix(0.4,0,0,0.4,2.96,0.4)"/></marker></defs><path style="fill:#838383;fill-opacity:1;stroke:none;stroke-width:1.1" id="rect3381-0" d="M 5.2397267,0.5 C 5.0575893,0.5 4.910959,0.64663006 4.910959,0.82876739 V 1.6643839 C 4.4856893,1.7699554 4.0763696,1.9398708 3.6917809,2.1712334 L 3.1027398,1.5821921 c -0.1287903,-0.1287903 -0.3369631,-0.1287903 -0.4657533,0 L 1.5684931,2.650685 c -0.1287902,0.1287908 -0.1287902,0.336963 0,0.4657539 L 2.1575342,3.7054803 C 1.9279826,4.0889453 1.7688105,4.5029063 1.6643837,4.9246576 H 0.82876723 C 0.64663022,4.9246576 0.5,5.0712876 0.5,5.2534237 v 1.5068496 c 0,0.1821374 0.14663022,0.3287674 0.32876723,0.3287674 H 1.650685 C 1.7562388,7.5146894 1.9259776,7.9233066 2.1575342,8.3082185 L 1.5684931,8.89726 c -0.1287902,0.1287897 -0.1287902,0.3369631 0,0.4657545 l 1.0684934,1.0684925 c 0.1287902,0.128791 0.336963,0.128791 0.4657533,0 L 3.6917809,9.8424645 C 4.0780503,10.075431 4.4856146,10.230006 4.910959,10.335617 v 0.835616 C 4.910959,11.35337 5.0575893,11.5 5.2397267,11.5 h 1.5068497 c 0.182136,0 0.328766,-0.14663 0.328766,-0.328767 v -0.835616 c 0.4262534,-0.10505 0.8336574,-0.261859 1.219178,-0.4931525 L 8.883562,10.431507 c 0.1287908,0.128791 0.336963,0.128791 0.4657538,0 L 10.417809,9.3630145 c 0.128789,-0.1287914 0.128789,-0.3369648 0,-0.4657545 L 9.8287671,8.3082185 C 10.060611,7.9240029 10.229802,7.5121062 10.335617,7.0890409 h 0.835617 C 11.35337,7.0890407 11.5,6.9424107 11.5,6.7602733 V 5.2534249 C 11.5,5.0712876 11.35337,4.9246576 11.171234,4.9246576 H 10.335617 C 10.230681,4.5019542 10.05798,4.0880816 9.8287671,3.7054803 L 10.417809,3.1164389 c 0.128789,-0.1287909 0.128789,-0.3369631 0,-0.4657539 L 9.3493158,1.5821921 c -0.1287908,-0.1287903 -0.336963,-0.1287903 -0.4657538,0 L 8.2945204,2.1712334 C 7.9095759,1.9401799 7.4989601,1.7692083 7.0753424,1.6643839 V 0.82876739 C 7.0753424,0.64663006 6.9287124,0.5 6.7465764,0.5 Z m 0.6986295,3.4246576 c 0.5326902,-0.014142 1.0759354,0.166 1.493151,0.5616435 0.8344301,0.7912871 0.873478,2.1107753 0.082192,2.9452058 C 6.7243649,8.2638772 5.4036157,8.3001209 4.5684931,7.5136984 3.7340631,6.7224113 3.6950148,5.4029233 4.4863016,4.5684928 4.8819454,4.1512779 5.4056664,3.9387947 5.9383562,3.9246576 Z"/></svg>