<svg xmlns="http://www.w3.org/2000/svg" xmlns:svg="http://www.w3.org/2000/svg" id="svg2869" width="64" height="64" version="1.1" viewBox="0 0 64 64"><defs id="defs2871"><linearGradient id="linearGradient5"><stop style="stop-color:#ef2929;stop-opacity:1" id="stop19" offset="0"/><stop style="stop-color:#ef2929;stop-opacity:0" id="stop20" offset="1"/></linearGradient><linearGradient id="swatch18"><stop style="stop-color:#ef2929;stop-opacity:1" id="stop18" offset="0"/></linearGradient><linearGradient id="swatch15"><stop style="stop-color:#3d0000;stop-opacity:1" id="stop15" offset="0"/></linearGradient><linearGradient id="linearGradient5-1"><stop style="stop-color:#ef2929;stop-opacity:1" id="stop5" offset="0"/><stop style="stop-color:#ef2929;stop-opacity:0" id="stop6" offset="1"/></linearGradient><linearGradient id="linearGradient3836-9"><stop style="stop-color:#a40000;stop-opacity:1" id="stop3838-8" offset="0"/><stop style="stop-color:#ef2929;stop-opacity:1" id="stop3840-1" offset="1"/></linearGradient></defs><metadata id="metadata2874"/><path style="color:#000;fill:#000;fill-rule:evenodd;stroke-linecap:round;stroke-linejoin:round;-inkscape-stroke:none" id="rect32" d="m 6.5410156,19.119141 a 3.000305,3.000305 0 0 0 -3,3 v 35.339843 a 3.000305,3.000305 0 0 0 3,3 H 41.880859 a 3.000305,3.000305 0 0 0 3,-3 V 22.119141 a 3.000305,3.000305 0 0 0 -3,-3 z m 3,6 H 38.880859 V 54.458984 H 9.5410156 Z"/><path style="color:#000;fill:#000;fill-rule:evenodd;stroke-linecap:round;stroke-linejoin:round;-inkscape-stroke:none" id="rect33" d="m 21.619141,4.0410156 a 3.000305,3.000305 0 0 0 -3,3 V 42.380859 a 3.000305,3.000305 0 0 0 3,3 h 35.339843 a 3.000305,3.000305 0 0 0 3,-3 V 7.0410156 a 3.000305,3.000305 0 0 0 -3,-3 z m 3,6.0000004 H 53.958984 V 39.380859 H 24.619141 Z"/><path style="color:#000;fill:#000;fill-rule:evenodd;stroke-linecap:round;stroke-linejoin:round;-inkscape-stroke:none" id="path33" d="M 21.619141,4.0410156 A 3.000005,3.000005 0 0 0 19.498047,4.9199219 L 4.4199219,19.998047 a 3.000005,3.000005 0 0 0 0,4.242187 3.000005,3.000005 0 0 0 4.2421875,0 L 23.740234,9.1621094 a 3.000005,3.000005 0 0 0 0,-4.2421875 3.000005,3.000005 0 0 0 -2.121093,-0.8789063 z"/><path style="color:#000;fill:#000;fill-rule:evenodd;stroke-linecap:round;stroke-linejoin:round;-inkscape-stroke:none" id="path34" d="M 54.837891,40.259766 39.759766,55.337891 a 3.000005,3.000005 0 0 0 0,4.242187 3.000005,3.000005 0 0 0 4.242187,0 L 59.080078,44.501953 a 3.000005,3.000005 0 0 0 0,-4.242187 3.000005,3.000005 0 0 0 -4.242187,0 z"/><path style="color:#000;fill:#000;fill-rule:evenodd;stroke-linecap:round;stroke-linejoin:round;-inkscape-stroke:none" id="path35" d="M 54.837891,4.9199219 39.759766,19.998047 a 3.000005,3.000005 0 0 0 0,4.242187 3.000005,3.000005 0 0 0 4.242187,0 L 59.080078,9.1621094 a 3.000005,3.000005 0 0 0 0,-4.2421875 3.000005,3.000005 0 0 0 -4.242187,0 z"/><path style="color:#000;fill:#000;fill-rule:evenodd;stroke-linecap:round;stroke-linejoin:round;-inkscape-stroke:none" id="path36" d="m 21.619141,39.380859 a 3.000005,3.000005 0 0 0 -2.121094,0.878907 L 4.4199219,55.337891 a 3.000005,3.000005 0 0 0 0,4.242187 3.000005,3.000005 0 0 0 4.2421875,0 L 23.740234,44.501953 a 3.000005,3.000005 0 0 0 0,-4.242187 3.000005,3.000005 0 0 0 -2.121093,-0.878907 z"/></svg>