<svg xmlns="http://www.w3.org/2000/svg" xmlns:svg="http://www.w3.org/2000/svg" id="svg2869" width="64" height="64" version="1.1" viewBox="0 0 64 64"><defs id="defs2871"><linearGradient id="linearGradient5"><stop style="stop-color:#ef2929;stop-opacity:1" id="stop19" offset="0"/><stop style="stop-color:#ef2929;stop-opacity:0" id="stop20" offset="1"/></linearGradient><linearGradient id="swatch18"><stop style="stop-color:#ef2929;stop-opacity:1" id="stop18" offset="0"/></linearGradient><linearGradient id="swatch15"><stop style="stop-color:#3d0000;stop-opacity:1" id="stop15" offset="0"/></linearGradient><linearGradient id="linearGradient5-1"><stop style="stop-color:#ef2929;stop-opacity:1" id="stop5" offset="0"/><stop style="stop-color:#ef2929;stop-opacity:0" id="stop6" offset="1"/></linearGradient><linearGradient id="linearGradient3836-9"><stop style="stop-color:#a40000;stop-opacity:1" id="stop3838-8" offset="0"/><stop style="stop-color:#ef2929;stop-opacity:1" id="stop3840-1" offset="1"/></linearGradient></defs><metadata id="metadata2874"/><path style="color:#000;fill:#000;fill-rule:evenodd;stroke-linecap:round;stroke-linejoin:round;-inkscape-stroke:none" id="path25" d="M 32,9.3535156 C 19.527776,9.3535156 9.3535156,19.527776 9.3535156,32 9.3535156,44.472224 19.527776,54.646484 32,54.646484 44.472224,54.646484 54.646484,44.472224 54.646484,32 54.646484,19.527776 44.472224,9.3535156 32,9.3535156 Z m 0,6.0000004 c 9.229581,0 16.646484,7.416903 16.646484,16.646484 0,9.229581 -7.416903,16.646484 -16.646484,16.646484 -9.229581,0 -16.646484,-7.416903 -16.646484,-16.646484 0,-9.229581 7.416903,-16.646484 16.646484,-16.646484 z"/><path style="color:#000;fill:#000;fill-rule:evenodd;stroke-linecap:round;stroke-linejoin:round;-inkscape-stroke:none" id="path26" d="m 32,2 a 3.000005,3.000005 0 0 0 -3,3 v 54 a 3.000005,3.000005 0 0 0 3,3 3.000005,3.000005 0 0 0 3,-3 V 5 A 3.000005,3.000005 0 0 0 32,2 Z"/><path style="color:#000;fill:#000;fill-rule:evenodd;stroke-linecap:round;stroke-linejoin:round;-inkscape-stroke:none" id="path27" d="m 5,29 a 3.000005,3.000005 0 0 0 -3,3 3.000005,3.000005 0 0 0 3,3 h 54 a 3.000005,3.000005 0 0 0 3,-3 3.000005,3.000005 0 0 0 -3,-3 z"/></svg>