<svg xmlns="http://www.w3.org/2000/svg" xmlns:svg="http://www.w3.org/2000/svg" id="svg2869" width="64" height="64" version="1.1" viewBox="0 0 64 64"><metadata id="metadata2874"/><path style="color:#000;fill:#000;fill-rule:evenodd;stroke-linecap:round;-inkscape-stroke:none;fill-opacity:1" id="path1" d="m 4.5117187,5 a 3,3 0 0 0 3,3 C 34.326069,8.0000001 56,29.673931 56,56.488281 a 3,3 0 0 0 3,3 3,3 0 0 0 3,-3 C 62,26.431294 37.568706,2.0000001 7.5117187,2 a 3,3 0 0 0 -3,3 z"/><path style="color:#000;fill:#000;fill-rule:evenodd;stroke-linecap:round;-inkscape-stroke:none;fill-opacity:1" id="path6" d="M 32.908203,26.847656 3.4980469,56.259766 a 3,3 0 0 0 0,4.242187 3,3 0 0 0 4.2421875,0 L 37.152344,31.091797 a 3,3 0 0 0 0,-4.244141 3,3 0 0 0 -4.244141,0 z"/><path id="path4" d="M 41.523438 22.476562 L 20.136719 28.195312 L 35.804688 43.863281 L 41.523438 22.476562 z" style="color:#000;fill:#000;fill-rule:evenodd;-inkscape-stroke:none;fill-opacity:1"/></svg>