<svg xmlns="http://www.w3.org/2000/svg" xmlns:svg="http://www.w3.org/2000/svg" xmlns:xlink="http://www.w3.org/1999/xlink" id="svg2860" width="64" height="64" version="1.1"><defs id="defs2862"><linearGradient id="linearGradient3814"><stop style="stop-color:#3465a4;stop-opacity:1" id="stop3816" offset="0"/><stop style="stop-color:#204a87;stop-opacity:1" id="stop3818" offset="1"/></linearGradient><linearGradient id="linearGradient3804"><stop style="stop-color:#729fcf;stop-opacity:1" id="stop3806" offset="0"/><stop style="stop-color:#3465a4;stop-opacity:1" id="stop3808" offset="1"/></linearGradient><radialGradient id="radialGradient3692" cx="45.883" cy="28.87" r="19.467" fx="45.883" fy="28.87" gradientUnits="userSpaceOnUse" xlink:href="#linearGradient3377"/><radialGradient id="radialGradient3703" cx="135.383" cy="97.37" r="19.467" fx="135.383" fy="97.37" gradientTransform="matrix(0.97435,0.2250379,-0.4623105,2.0016728,48.487554,-127.99883)" gradientUnits="userSpaceOnUse" xlink:href="#linearGradient3377"/><linearGradient id="linearGradient3377"><stop id="stop3379" offset="0" style="stop-color:#71b2f8;stop-opacity:1"/><stop id="stop3381" offset="1" style="stop-color:#002795;stop-opacity:1"/></linearGradient><radialGradient id="radialGradient3705" cx="148.883" cy="81.87" r="19.467" fx="148.883" fy="81.87" gradientTransform="matrix(1.3852588,-0.05136783,0.03705629,0.9993132,-60.392403,7.7040438)" gradientUnits="userSpaceOnUse" xlink:href="#linearGradient3377"/><linearGradient id="linearGradient3810" x1="-35" x2="-28" y1="14" y2="56" gradientUnits="userSpaceOnUse" xlink:href="#linearGradient3804"/><linearGradient id="linearGradient3820" x1="-16" x2="-13" y1="12" y2="52" gradientUnits="userSpaceOnUse" xlink:href="#linearGradient3814"/></defs><metadata id="metadata2865"/><g id="layer1"><g id="g3822" transform="translate(-20,0)"><g id="g893" transform="translate(49,-24)"><path id="path3030-7" d="m -11,33 1,47 23,4 -2,-46 -22,-5" style="fill:#73d216;stroke:none"/><path id="path3852" d="m -9,79 21,5" style="fill:none;stroke:#8ae234;stroke-width:2;stroke-linecap:butt;stroke-linejoin:miter;stroke-opacity:1"/><path id="path3032-4" d="M 14,83 13,38 23,29 v 48 l -4,3" style="fill:#4e9a06;stroke:none"/><path id="path3854" d="M -9,80 V 34" style="fill:none;stroke:#8ae234;stroke-width:2;stroke-linecap:butt;stroke-linejoin:miter;stroke-opacity:1"/><path id="path3860" d="m 15,82 8,-6" style="fill:none;stroke:#73d216;stroke-width:2;stroke-linecap:butt;stroke-linejoin:miter;stroke-opacity:1"/><path id="path3856" d="m -10,35 20,4" style="fill:none;stroke:#8ae234;stroke-width:2;stroke-linecap:butt;stroke-linejoin:miter;stroke-opacity:1"/><path id="path3052-0" d="M 23,29 1,27 -10,33 12,37 Z" style="fill:#8ae234;stroke:none"/><path id="path3858" d="m 9,38 2,46" style="fill:none;stroke:#8ae234;stroke-width:2;stroke-linecap:butt;stroke-linejoin:miter;stroke-opacity:1"/><path id="path3862" d="M 22,77 V 32" style="fill:none;stroke:#73d216;stroke-width:2;stroke-linecap:butt;stroke-linejoin:miter;stroke-opacity:1"/><path id="path3030" d="m -11,33 1,48 23,4 -2,-48 -22,-4" style="fill:none;stroke:#172a04;stroke-width:2;stroke-linecap:round;stroke-linejoin:round;stroke-miterlimit:4;stroke-dasharray:none;stroke-opacity:1"/><path id="path3864" d="m 23,31 -9,8" style="fill:none;stroke:#73d216;stroke-width:2;stroke-linecap:butt;stroke-linejoin:miter;stroke-opacity:1"/><path id="path3866" d="m 14,38 1,45" style="fill:none;stroke:#73d216;stroke-width:2;stroke-linecap:butt;stroke-linejoin:miter;stroke-opacity:1"/><path id="path3032" d="M 13,85 12,38 23,29 24,77 13,85" style="fill:none;stroke:#172a04;stroke-width:2;stroke-linecap:round;stroke-linejoin:round;stroke-miterlimit:4;stroke-dasharray:none;stroke-opacity:1"/><path id="path3052" d="M 23,29 1,27 -11,33 12,37 Z" style="fill:none;stroke:#172a04;stroke-width:2;stroke-linecap:round;stroke-linejoin:round;stroke-miterlimit:4;stroke-dasharray:none;stroke-opacity:1"/><path id="path3846" d="M -11,33 13,85" style="fill:none;stroke:#172a04;stroke-width:2;stroke-linecap:butt;stroke-linejoin:miter;stroke-opacity:1"/><path id="path3848" d="M -9,32 23,29" style="fill:none;stroke:#172a04;stroke-width:2;stroke-linecap:butt;stroke-linejoin:miter;stroke-opacity:1"/><path id="path3850" d="M 13,85 23,29" style="fill:none;stroke:#172a04;stroke-width:2;stroke-linecap:butt;stroke-linejoin:miter;stroke-opacity:1"/></g><path style="fill:#ef2929;stroke:#a40000;stroke-width:2;stroke-linecap:butt;stroke-linejoin:round;stroke-opacity:1" id="path3010-6-7-5" d="M 73,18.15625 V 19 L 61,27 37,23 V 19.1875 L 23,26 62,34 81,19 Z"/><path style="fill:#ef2929;stroke:#a40000;stroke-width:2;stroke-linecap:butt;stroke-linejoin:round;stroke-opacity:1" id="path3010-6-7" d="M 73,36.15625 V 37 L 62,45 37,40 V 37.1875 L 23,44 63,53 81,37 Z"/></g></g></svg>