<svg xmlns="http://www.w3.org/2000/svg" xmlns:svg="http://www.w3.org/2000/svg" xmlns:xlink="http://www.w3.org/1999/xlink" id="svg2869" width="64" height="64" version="1.1" viewBox="0 0 64 64"><defs id="defs2871"><linearGradient id="linearGradient29"><stop style="stop-color:#204a87;stop-opacity:1" id="stop29" offset="0"/><stop style="stop-color:#729fcf;stop-opacity:1" id="stop30" offset="1"/></linearGradient><linearGradient id="linearGradient24"><stop id="stop23" offset="0" style="stop-color:#204a87;stop-opacity:1"/><stop id="stop24" offset="1" style="stop-color:#729fcf;stop-opacity:1"/></linearGradient><linearGradient id="linearGradient22"><stop id="stop21" offset="0" style="stop-color:#4e9a06;stop-opacity:1"/><stop id="stop22" offset="1" style="stop-color:#8ae234;stop-opacity:1"/></linearGradient><linearGradient id="linearGradient5"><stop style="stop-color:#ef2929;stop-opacity:1" id="stop19" offset="0"/><stop style="stop-color:#ef2929;stop-opacity:0" id="stop20" offset="1"/></linearGradient><linearGradient id="swatch18"><stop style="stop-color:#ef2929;stop-opacity:1" id="stop18" offset="0"/></linearGradient><linearGradient id="swatch15"><stop style="stop-color:#3d0000;stop-opacity:1" id="stop15" offset="0"/></linearGradient><linearGradient id="linearGradient5-1"><stop style="stop-color:#ef2929;stop-opacity:1" id="stop5" offset="0"/><stop style="stop-color:#ef2929;stop-opacity:0" id="stop6" offset="1"/></linearGradient><linearGradient id="linearGradient3836-9"><stop style="stop-color:#a40000;stop-opacity:1" id="stop3838-8" offset="0"/><stop style="stop-color:#ef2929;stop-opacity:1" id="stop3840-1" offset="1"/></linearGradient><radialGradient id="radialGradient13" cx="39.502" cy="40.727" r="22.062" fx="39.502" fy="40.727" gradientTransform="matrix(1.7937293,1.017333,-1.0383284,1.824402,12.77456,-63.360877)" gradientUnits="userSpaceOnUse" xlink:href="#linearGradient11"/><linearGradient id="linearGradient11"><stop style="stop-color:#729fcf;stop-opacity:1" id="stop13" offset="0"/><stop style="stop-color:#204a87;stop-opacity:1" id="stop11" offset="1"/></linearGradient><linearGradient id="linearGradient3377-3"><stop id="stop3379-8" offset="0" style="stop-color:#faff2b;stop-opacity:1"/><stop id="stop3381-3" offset="1" style="stop-color:#fa0;stop-opacity:1"/></linearGradient><linearGradient id="linearGradient4387"><stop style="stop-color:#71b2f8;stop-opacity:1" id="stop4389" offset="0"/><stop style="stop-color:#002795;stop-opacity:1" id="stop4391" offset="1"/></linearGradient><linearGradient id="linearGradient3836-0-6-92-4-0"><stop style="stop-color:#a40000;stop-opacity:1" id="stop3838-2-7-06-8-6" offset="0"/><stop style="stop-color:#ef2929;stop-opacity:1" id="stop3840-5-5-8-7-2" offset="1"/></linearGradient><linearGradient id="linearGradient4516" x1="14.578" x2="50.611" y1="27.644" y2="42.348" gradientTransform="matrix(0.91764667,0,0,0.91543299,7.4569649,-10.851524)" gradientUnits="userSpaceOnUse" xlink:href="#linearGradient22"/><linearGradient id="linearGradient3354"><stop id="stop3356" offset="0" style="stop-color:#729fcf;stop-opacity:1"/><stop id="stop3358" offset="1" style="stop-color:#204a87;stop-opacity:1"/></linearGradient><linearGradient id="linearGradient18" x1="28.159" x2="53.693" y1="45.023" y2="31.92" gradientTransform="matrix(0.91764667,0,0,0.91543299,5.5967063,-9.6079085)" gradientUnits="userSpaceOnUse" xlink:href="#linearGradient24"/><linearGradient id="linearGradient14" x1="65.435" x2="41.557" y1="47.534" y2="34.817" gradientTransform="matrix(0.91764667,0,0,0.91543299,-34.434605,-11.375877)" gradientUnits="userSpaceOnUse" xlink:href="#linearGradient3354"/><linearGradient id="linearGradient30" x1="29.778" x2="55.385" y1="35.717" y2="14.092" gradientUnits="userSpaceOnUse" xlink:href="#linearGradient29"/></defs><metadata id="metadata2874"/><g id="layer3" style="display:inline"><path style="opacity:1;fill:#729fcf;fill-opacity:1;fill-rule:evenodd;stroke:#0c1522;stroke-width:2.00001;stroke-linecap:round;stroke-linejoin:round;stroke-opacity:1" id="path12" d="M 18.260795,61.000176 C 1.7864687,47.327689 1.5712439,37.276581 7.4738156,17.881577 10.514149,14.174495 15.337186,5.0777001 30.812411,3.2439598 11.081982,19.578959 16.471245,36.612767 22.896918,45.84763 c -4.058659,4.167818 -6.324466,8.717398 -4.636123,15.152546 z"/><path id="path16" d="M 39.80712,40.886165 C 39.347502,18.750404 43.027643,14.637758 50.918334,7.7286519 54.736143,9.018553 59.074083,12.861105 60.054063,15.930397 53.803846,23.917301 52.515998,35.730898 57.174803,58.979264 54.485196,50.098341 51.074626,40.861606 39.80712,40.886165 Z" style="display:inline;opacity:1;fill:#729fcf;fill-opacity:1;fill-rule:evenodd;stroke:#0c1522;stroke-width:2.00001;stroke-linecap:round;stroke-linejoin:round;stroke-opacity:1"/><path id="path28" d="m 51.318359,10.046875 c 2.664611,1.226923 5.342254,3.630329 6.441407,5.619141 -4.704254,6.607763 -6.335888,15.411672 -4.847657,29.220703 -2.549632,-3.157876 -6.050466,-5.445581 -11.125,-5.908203 -0.197725,-18.706008 2.787826,-22.928537 9.53125,-28.931641 z" style="display:inline;opacity:1;fill:url(#linearGradient30);fill-opacity:1;fill-rule:evenodd;stroke:#729fcf;stroke-width:2.00001;stroke-linecap:round;stroke-linejoin:round;stroke-opacity:1"/><path id="path24" d="M 22.896918,45.84763 C 10.507844,27.298201 19.418369,12.723127 30.812411,3.2439598 38.009021,2.2698045 45.343419,4.3228707 50.918334,7.7286519 40.938023,15.97348 39.70122,22.647624 39.80712,40.886165 34.254637,41.133337 27.673519,41.988373 22.896918,45.84763 Z" style="display:inline;opacity:1;fill:#8ae234;fill-opacity:1;fill-rule:evenodd;stroke:#17230b;stroke-width:2.00001;stroke-linecap:round;stroke-linejoin:round;stroke-dasharray:none;stroke-opacity:1"/><path id="path21" d="m 34.685547,5.0859375 c 4.3141,0.061386 8.542613,1.2198975 12.195312,3.0117188 C 38.840841,15.580985 37.559778,22.755428 37.558594,37.972656 33.070552,38.2911 27.950191,39.15602 23.683594,41.839844 14.12913,25.966693 21.656459,13.68295 31.611328,5.2363281 32.632653,5.1230644 33.659554,5.0713386 34.685547,5.0859375 Z" transform="matrix(1.0338547,0,0,1.0338147,-1.0247137,-0.25384716)" style="opacity:1;fill:url(#linearGradient4516);fill-opacity:1;fill-rule:evenodd;stroke:#8ae234;stroke-width:1.93455;stroke-linecap:round;stroke-linejoin:round;stroke-dasharray:none;stroke-opacity:1"/><path style="opacity:1;fill:url(#linearGradient14);fill-opacity:1;fill-rule:evenodd;stroke:#729fcf;stroke-width:1.93455;stroke-linecap:round;stroke-linejoin:round;stroke-opacity:1" id="path26" d="M 24.462891,6.7109375 C 11.291828,21.044915 15.087935,35.534635 20.701172,44.390625 18.167597,47.28992 16.422634,50.565513 16.210937,54.5 4.8313443,43.641922 4.991564,34.921511 9.9746094,18.4375 12.780553,14.921062 16.016896,9.4755874 24.462891,6.7109375 Z" transform="matrix(1.0338547,0,0,1.0338147,-1.0247137,-0.25384716)"/><path style="fill:none;stroke:#0c1522;stroke-width:1;stroke-linecap:round;stroke-linejoin:round;stroke-dasharray:none;stroke-opacity:1" id="path839" d="M 8.4851839,51.269783 C 11.811877,31.098625 44.97231,22.579841 54.52943,40.463301"/><path style="fill:none;stroke:#0c1522;stroke-width:1;stroke-linecap:round;stroke-linejoin:round;stroke-dasharray:none;stroke-opacity:1" id="path841" d="M 4.0012601,37.976551 C 14.369364,18.537691 43.536681,16.009382 54.707116,29.842375"/><path style="fill:none;stroke:#0c1522;stroke-width:1;stroke-linecap:round;stroke-linejoin:round;stroke-dasharray:none;stroke-opacity:1" id="path843" d="M 5.5280638,24.90186 C 20.261449,10.062113 39.319651,5.3312343 56.764105,21.582244"/></g></svg>