<svg xmlns="http://www.w3.org/2000/svg" xmlns:svg="http://www.w3.org/2000/svg" xmlns:xlink="http://www.w3.org/1999/xlink" id="svg42" width="250" height="250" preserveAspectRatio="xMidYMid meet" version="1.1" viewBox="0 0 250 250"><metadata id="metadata46"/><defs id="defs4"><path id="aYZCzIjAA" d="M208.8 0C231.55 0 250 18.45 250 41.2C250 82.96 250 167.53 250 209.41C250 231.83 231.83 250 209.41 250C167.53 250 82.47 250 40.59 250C18.17 250 0 231.83 0 209.41C0 167.53 0 87.64 0 47.05C0 21.07 21.07 0 47.05 0C87.64 0 167.04 0 208.8 0Z"/><path id="bbaAPBqsd" d="M99.5 185.52C99.5 201.9 99.94 209.98 101.25 218.75C97.99 218.75 71.96 218.75 68.71 218.75C70.02 210.91 70.46 201.21 70.46 185.98C70.46 173.81 70.46 76.51 70.46 64.35C70.46 51.65 70.02 44.96 68.71 34.34C77.66 34.8 83.12 35.03 96.44 35.03C102.55 35.03 151.47 35.03 157.58 35.03C171.34 35.03 178.33 34.57 187.5 33.42C187.5 36.53 187.5 61.46 187.5 64.57C179.64 63.42 171.56 62.96 157.58 62.96C153.71 62.96 134.35 62.96 99.5 62.96L99.5 111.89C127.54 111.89 143.12 111.89 146.23 111.89C159.77 111.89 167.41 111.43 175.93 110.28C175.93 113.35 175.93 137.9 175.93 140.97C167.85 139.82 159.55 139.35 146.23 139.35C143.12 139.35 127.54 139.35 99.5 139.35C99.5 163.98 99.5 179.36 99.5 185.52Z"/></defs><g id="g40"><g id="g38"><g id="g8"><use id="use6" fill="#284f8e" fill-opacity="1" opacity="1" xlink:href="#aYZCzIjAA"/></g><g id="g36"><g id="g28"><filter id="shadow15891929" width="137.79" height="204.33" x="59.71" y="24.42" filterUnits="userSpaceOnUse" primitiveUnits="userSpaceOnUse"><feFlood id="feFlood10"/><feComposite id="feComposite12" in2="SourceAlpha" operator="in"/><feGaussianBlur id="feGaussianBlur14" stdDeviation="1"/><feOffset id="feOffset16" dx="1" dy="1" result="afterOffset"/><feFlood id="feFlood18" flood-color="#000" flood-opacity=".5"/><feComposite id="feComposite20" in2="afterOffset" operator="in"/><feMorphology id="feMorphology22" operator="dilate" radius="1"/><feComposite id="feComposite24" in2="SourceAlpha" operator="out"/></filter><path id="a1taxgGMFo" fill="#fff" fill-opacity="1" d="M99.5 185.52C99.5 201.9 99.94 209.98 101.25 218.75C97.99 218.75 71.96 218.75 68.71 218.75C70.02 210.91 70.46 201.21 70.46 185.98C70.46 173.81 70.46 76.51 70.46 64.35C70.46 51.65 70.02 44.96 68.71 34.34C77.66 34.8 83.12 35.03 96.44 35.03C102.55 35.03 151.47 35.03 157.58 35.03C171.34 35.03 178.33 34.57 187.5 33.42C187.5 36.53 187.5 61.46 187.5 64.57C179.64 63.42 171.56 62.96 157.58 62.96C153.71 62.96 134.35 62.96 99.5 62.96L99.5 111.89C127.54 111.89 143.12 111.89 146.23 111.89C159.77 111.89 167.41 111.43 175.93 110.28C175.93 113.35 175.93 137.9 175.93 140.97C167.85 139.82 159.55 139.35 146.23 139.35C143.12 139.35 127.54 139.35 99.5 139.35C99.5 163.98 99.5 179.36 99.5 185.52Z" filter="url(#shadow15891929)"/></g><use id="use30" fill="#fff" fill-opacity="1" opacity="1" xlink:href="#bbaAPBqsd"/><g id="g34"><use id="use32" fill-opacity="0" stroke="#000" stroke-opacity="0" stroke-width="1.91" opacity="1" xlink:href="#bbaAPBqsd"/></g></g></g></g></svg>