<svg xmlns="http://www.w3.org/2000/svg" width="48" height="48" fill="currentColor" class="bi bi-tools" version="1.1" viewBox="0 0 16 16"><defs><linearGradient id="linearGradient860" x1="28.348" x2="-.725" y1="25.774" y2="-3.299" gradientUnits="userSpaceOnUse"><stop offset="0" stop-color="#eeeeec"/><stop offset="1" stop-color="#fff"/></linearGradient></defs><circle cx="13.852" cy="11.251" r="14.465" fill="url(#linearGradient860)" stroke="#000" stroke-linejoin="round" stroke-width="2.769" transform="matrix(.48154 0 0 .48154 1.3297 2.5822)" style="paint-order:stroke fill markers"/><circle cx="27" cy="21" r="17" fill="none" stroke="#729fcf" stroke-linejoin="round" stroke-width="1.709" transform="matrix(.39011 0 0 .39011 -2.5526 -.19871)" style="paint-order:stroke fill markers"/><path fill="#3465a4" fill-rule="evenodd" stroke-width="3" d="m27.854 9.043a9.3494 9.3494 0 0 0-9.0898 11.797l-10.385 10.533a17.228 17.228 0 0 0 5.9687 6.916l11.012-10.857a9.3588 9.3588 0 0 0 11.465-11.451l-6.6719 6.6738-5.4766-1.1348-1.1348-5.4785 6.6758-6.6758a9.3494 9.3494 0 0 0-2.3633-0.32227z" transform="scale(.33333)"/></svg>