<svg xmlns="http://www.w3.org/2000/svg" xmlns:svg="http://www.w3.org/2000/svg" id="svg830" width="64" height="64" version="1.1" viewBox="0 0 16.933 16.933"><metadata id="metadata827"/><g id="layer1" transform="translate(-108.80373,-155.64809)"><g id="g829" transform="matrix(0.38917917,0,0,0.38917917,66.50284,95.165496)"><path id="path1472" d="m 131.1424,176.86022 12.78082,1.83377 -0.11113,10.94706 -12.33628,5.3346 -8.33532,-7.89076 z" style="fill:#009;fill-opacity:1;stroke:#000;stroke-width:.26499999;stroke-linecap:round;stroke-linejoin:bevel;stroke-miterlimit:4;stroke-dasharray:none;stroke-opacity:1"/><path id="path1474" d="m 126.36348,164.9685 9.6134,-5.50131 10.89149,8.39089 -2.94515,10.83591 -12.78082,-1.83377 z" style="fill:#66f;fill-opacity:1;stroke:#000;stroke-width:.26499999;stroke-linecap:round;stroke-linejoin:bevel;stroke-miterlimit:4;stroke-dasharray:none;stroke-opacity:1"/><path id="path1476" d="m 115.47199,167.80251 10.89149,-2.83401 4.77892,11.89172 -8.00191,10.22467 -9.55784,-5.72359 z" style="fill:#66f;fill-opacity:1;stroke:#000;stroke-width:.26499999;stroke-linecap:round;stroke-linejoin:bevel;stroke-miterlimit:4;stroke-dasharray:none;stroke-opacity:1"/><path id="path1478" d="m 118.58385,163.80155 12.33627,-4.94562 5.05676,0.61126 -9.6134,5.50131 -10.89149,2.83401 z" style="fill:#009;fill-opacity:1;stroke:#000;stroke-width:.26499999;stroke-linecap:round;stroke-linejoin:bevel;stroke-miterlimit:4;stroke-dasharray:none;stroke-opacity:1"/><path id="path1480" d="m 115.52756,186.14021 -1.94491,-4.77891 9.55784,5.72359 8.33532,7.89076 -5.3346,-0.50011 z" style="fill:#000050;fill-opacity:1;stroke:#000;stroke-width:.26499999;stroke-linecap:round;stroke-linejoin:bevel;stroke-miterlimit:4;stroke-dasharray:none;stroke-opacity:1"/><path id="path1482" d="m 146.92394,185.75123 -3.11185,3.88982 0.11113,-10.94706 2.94515,-10.83591 2.05605,4.77891 z" style="fill:#000050;fill-opacity:1;stroke:#000;stroke-width:.26499999;stroke-linecap:round;stroke-linejoin:bevel;stroke-miterlimit:4;stroke-dasharray:none;stroke-opacity:1"/><rect id="rect1488" width="43.51" height="43.51" x="108.693" y="155.411" style="opacity:1;fill:none;fill-opacity:1;stroke:none;stroke-width:.26499999;stroke-linecap:round;stroke-linejoin:bevel;stroke-miterlimit:4;stroke-dasharray:none;stroke-opacity:1"/></g></g></svg>