<svg xmlns="http://www.w3.org/2000/svg" xmlns:svg="http://www.w3.org/2000/svg" xmlns:xlink="http://www.w3.org/1999/xlink" id="svg2869" width="64" height="64" version="1.1" viewBox="0 0 64 64"><defs id="defs2871"><linearGradient id="linearGradient5"><stop style="stop-color:#ef2929;stop-opacity:1" id="stop19" offset="0"/><stop style="stop-color:#ef2929;stop-opacity:0" id="stop20" offset="1"/></linearGradient><linearGradient id="swatch18"><stop style="stop-color:#ef2929;stop-opacity:1" id="stop18" offset="0"/></linearGradient><linearGradient id="swatch15"><stop style="stop-color:#3d0000;stop-opacity:1" id="stop15" offset="0"/></linearGradient><linearGradient id="linearGradient5-1"><stop style="stop-color:#ef2929;stop-opacity:1" id="stop5" offset="0"/><stop style="stop-color:#ef2929;stop-opacity:0" id="stop6" offset="1"/></linearGradient><linearGradient id="linearGradient3836-9"><stop style="stop-color:#a40000;stop-opacity:1" id="stop3838-8" offset="0"/><stop style="stop-color:#ef2929;stop-opacity:1" id="stop3840-1" offset="1"/></linearGradient><linearGradient id="linearGradient3836-9-3"><stop style="stop-color:#a40000;stop-opacity:1" id="stop3838-8-5" offset="0"/><stop style="stop-color:#ef2929;stop-opacity:1" id="stop3840-1-6" offset="1"/></linearGradient><linearGradient id="linearGradient3082" x1="-18" x2="-22" y1="18" y2="5" gradientUnits="userSpaceOnUse" xlink:href="#linearGradient3836-9-3"/><linearGradient id="linearGradient3836-9-7"><stop style="stop-color:#a40000;stop-opacity:1" id="stop3838-8-0" offset="0"/><stop style="stop-color:#ef2929;stop-opacity:1" id="stop3840-1-9" offset="1"/></linearGradient><linearGradient id="linearGradient3082-3" x1="-18" x2="-22" y1="18" y2="5" gradientUnits="userSpaceOnUse" xlink:href="#linearGradient3836-9-7"/><linearGradient id="linearGradient3801-1-3" x1="-18" x2="-22" y1="18" y2="5" gradientTransform="matrix(0.76342439,0,0,0.75750425,-4.596389,2.7525637)" gradientUnits="userSpaceOnUse" xlink:href="#linearGradient3836-9-3"/><linearGradient id="linearGradient3801-1-3-2" x1="-18" x2="-22" y1="18" y2="5" gradientTransform="matrix(0.84956703,0,0,0.84301394,-2.927337,1.7790378)" gradientUnits="userSpaceOnUse" xlink:href="#linearGradient3836-9-3"/><linearGradient id="linearGradient32" x1="-18" x2="-22" y1="18" y2="5" gradientTransform="matrix(0.82607043,0,0,0.82533448,-4.0098079,1.346708)" gradientUnits="userSpaceOnUse" xlink:href="#linearGradient3836-9-3"/><linearGradient id="linearGradient34" x1="-18" x2="-22" y1="18" y2="5" gradientTransform="matrix(0.82607043,0,0,0.82533448,-4.0098079,1.346708)" gradientUnits="userSpaceOnUse" xlink:href="#linearGradient3836-9-3"/></defs><metadata id="metadata2874"/><g id="layer3" style="display:inline"><path style="fill:none;stroke:#151819;stroke-width:8;stroke-linecap:round;stroke-linejoin:round;stroke-miterlimit:1.9;stroke-dasharray:none;stroke-opacity:1" id="path3064" d="M 58,34.901222 46.82741,51.43625 26.969124,56 10.057857,45.919089 5.9999995,27.098778 17.172589,10.563751 37.030875,6.0000008 53.942142,16.080912 Z"/><path style="fill:none;stroke:#d3d7cf;stroke-width:3.99998;stroke-linecap:round;stroke-linejoin:round;stroke-miterlimit:1.9;stroke-dasharray:none;stroke-opacity:1" id="path3064-3" d="M 58,34.901222 46.82741,51.43625 26.969124,56 10.057857,45.919089 5.9999995,27.098778 17.172589,10.563751 37.030875,6.0000008 53.942142,16.080912 Z"/><path style="fill:none;stroke:#fff;stroke-width:2;stroke-linecap:round;stroke-linejoin:round;stroke-miterlimit:1.9;stroke-opacity:1" id="path3064-3-6" d="M 9.2139286,46.515853 4.9999996,26.942729 16.602304,9.7462992 37.22437,4.9999991 54.786071,15.484147"/><path style="fill:none;stroke:#fff;stroke-width:2;stroke-linecap:round;stroke-linejoin:round;stroke-miterlimit:1.9;stroke-opacity:1" id="path3064-3-6-7" d="M 53.098214,16.677675 57,34.745173 46.257124,50.618799 27.162619,54.999999 10.901785,45.322325"/><g id="g4587" transform="matrix(0.91581284,0,0,0.91581284,1.8514053,0.7742157)" style="stroke-width:1.09193"><text style="font-style:normal;font-weight:400;font-size:26.6667px;line-height:125%;font-family:Sans;letter-spacing:0;word-spacing:0;fill:#2e0000;fill-opacity:1;stroke:#2e0000;stroke-width:6.55156;stroke-linecap:butt;stroke-linejoin:miter;stroke-dasharray:none;stroke-opacity:1;paint-order:stroke markers fill" id="text4553" x=".334" y="27.462" xml:space="preserve"><tspan id="tspan4551" x=".334" y="27.462" style="font-size:32px;fill:#2e0000;fill-opacity:1;stroke:#2e0000;stroke-width:6.55156;stroke-dasharray:none;stroke-opacity:1;paint-order:stroke markers fill">N</tspan></text><text style="font-style:normal;font-weight:400;font-size:26.6667px;line-height:125%;font-family:Sans;letter-spacing:0;word-spacing:0;fill:#c00;fill-opacity:1;stroke:#ef2929;stroke-width:2.18385;stroke-linecap:butt;stroke-linejoin:miter;stroke-dasharray:none;stroke-opacity:1;paint-order:stroke markers fill" id="text1" x=".334" y="27.462" xml:space="preserve"><tspan id="tspan1" x=".334" y="27.462" style="font-size:32px;fill:#c00;stroke:#ef2929;stroke-width:2.18385;stroke-dasharray:none;stroke-opacity:1;paint-order:stroke markers fill">N</tspan></text></g><g id="g34" transform="matrix(0.77869459,0,0,0.77869445,47.548264,23.597628)" style="stroke-width:1.2842"><path style="fill:none;stroke:#2e0000;stroke-width:2.56841;stroke-miterlimit:4;stroke-dasharray:none;stroke-opacity:1" id="path33" d="M -26.310778,5.3580033 A 8.3519646,8.3515832 0.02039876 1 1 -13.623399,16.222662 8.3519646,8.3515832 0.02039876 1 1 -26.310778,5.3580033 Z"/><path style="fill:url(#linearGradient34);fill-opacity:1;stroke:#ef2929;stroke-width:2.56842;stroke-miterlimit:4;stroke-dasharray:none;stroke-opacity:1" id="path34" d="m -24.358888,7.0362241 a 5.782493,5.7773415 0 1 1 8.784093,7.5158349 5.782493,5.7773415 0 0 1 -8.784093,-7.5158349 z"/></g><g id="g32" transform="matrix(0.77869459,0,0,0.77869445,69.490406,7.6785399)" style="stroke-width:1.2842"><path style="fill:none;stroke:#2e0000;stroke-width:2.56841;stroke-miterlimit:4;stroke-dasharray:none;stroke-opacity:1" id="path31" d="M -26.310778,5.3580033 A 8.3519646,8.3515832 0.02039876 1 1 -13.623399,16.222662 8.3519646,8.3515832 0.02039876 1 1 -26.310778,5.3580033 Z"/><path style="fill:url(#linearGradient32);fill-opacity:1;stroke:#ef2929;stroke-width:2.56842;stroke-miterlimit:4;stroke-dasharray:none;stroke-opacity:1" id="path32" d="m -24.358888,7.0362241 a 5.782493,5.7773415 0 1 1 8.784093,7.5158349 5.782493,5.7773415 0 0 1 -8.784093,-7.5158349 z"/></g></g></svg>